<svg width="22" height="21" viewBox="0 0 22 21" fill="none" xmlns="http://www.w3.org/2000/svg">
<path fill-rule="evenodd" clip-rule="evenodd" d="M2.37715 10.5494C2.37715 15.2651 6.42671 18.9316 11.0606 18.9316C12.417 18.9316 14.1978 18.4279 15.8148 17.4323C16.9954 16.7055 17.9781 15.786 18.6352 14.7491C18.5701 14.7569 18.503 14.7649 18.4336 14.7732L18.3926 14.7781C16.3231 15.0245 12.4304 15.488 9.61588 12.6387C6.86168 9.85055 6.97942 6.16448 7.17319 3.86098C7.19826 3.56304 7.23568 3.18146 7.26853 2.84662C7.27978 2.73188 7.29049 2.62263 7.29999 2.52412C7.26015 2.54643 7.21942 2.56979 7.17781 2.59424C6.48101 3.00364 5.69683 3.62645 4.96279 4.43017C3.47981 6.05394 2.37715 8.21274 2.37715 10.5494ZM7.35641 1.16534C7.35666 1.16502 7.35814 1.17122 7.36009 1.18494C7.35714 1.17253 7.35617 1.16567 7.35641 1.16534ZM19.2948 13.3102C19.2949 13.3101 19.2946 13.3127 19.2937 13.3179C19.2943 13.3128 19.2947 13.3102 19.2948 13.3102ZM11.0606 21C5.44086 21 0.333984 16.5466 0.333984 10.5494C0.333984 4.55207 5.95269 0.000807505 8.50665 6.94232e-08C9.60425 -0.000346877 9.47541 1.29975 9.29592 3.11095C9.05776 5.51417 8.73043 8.81722 11.0606 11.1762C13.181 13.3227 16.2188 12.957 18.441 12.6894C20.5015 12.4414 21.8608 12.2777 21.1378 14.2791C19.635 18.4391 14.6362 21 11.0606 21Z" fill="#34A853"/>
</svg>
