<svg width="22" height="21" viewBox="0 0 22 21" fill="none" xmlns="http://www.w3.org/2000/svg">
<path fill-rule="evenodd" clip-rule="evenodd" d="M2.37642 10.5494C2.37642 15.2651 6.42598 18.9316 11.0599 18.9316C12.4162 18.9316 14.1971 18.4279 15.8141 17.4323C16.9946 16.7055 17.9774 15.786 18.6345 14.7491C18.5694 14.7569 18.5022 14.7649 18.4329 14.7732L18.3919 14.7781C16.3224 15.0245 12.4296 15.488 9.61514 12.6387C6.86095 9.85055 6.97869 6.16448 7.17246 3.86098C7.19752 3.56304 7.23495 3.18146 7.26779 2.84662C7.27905 2.73188 7.28976 2.62263 7.29926 2.52412C7.25942 2.54643 7.21869 2.56979 7.17708 2.59424C6.48028 3.00364 5.6961 3.62645 4.96206 4.43017C3.47908 6.05394 2.37642 8.21274 2.37642 10.5494ZM7.35568 1.16534C7.35593 1.16502 7.3574 1.17122 7.35935 1.18494C7.35641 1.17253 7.35543 1.16567 7.35568 1.16534ZM19.2941 13.3102C19.2942 13.3101 19.2939 13.3127 19.293 13.3179C19.2935 13.3128 19.294 13.3102 19.2941 13.3102ZM11.0599 21C5.44013 21 0.333252 16.5466 0.333252 10.5494C0.333252 4.55207 5.95196 0.000807505 8.50592 6.94232e-08C9.60352 -0.000346877 9.47468 1.29975 9.29519 3.11095C9.05703 5.51417 8.7297 8.81722 11.0599 11.1762C13.1803 13.3227 16.2181 12.957 18.4403 12.6894C20.5007 12.4414 21.86 12.2777 21.137 14.2791C19.6342 18.4391 14.6354 21 11.0599 21Z" fill="#B3B3B3"/>
</svg>
