<svg width="87" height="33" viewBox="0 0 87 33" fill="none" xmlns="http://www.w3.org/2000/svg">
<path d="M4.46316 8.74302C5.03699 7.91038 5.82338 7.22014 6.82225 6.6723C7.8424 6.10258 9.00067 5.81772 10.2971 5.81772C11.8061 5.81772 13.1663 6.20119 14.3777 6.96812C15.6104 7.73502 16.5774 8.83069 17.2788 10.255C18.0014 11.6574 18.3627 13.2898 18.3627 15.1524C18.3627 17.015 18.0014 18.6693 17.2788 20.1155C16.5774 21.5398 15.6104 22.6464 14.3777 23.4353C13.1663 24.2241 11.8061 24.6185 10.2971 24.6185C9.00067 24.6185 7.853 24.3446 6.85413 23.7968C5.87646 23.249 5.07949 22.5587 4.46316 21.7261V33H0V6.11354H4.46316V8.74302ZM13.8039 15.1524C13.8039 14.0568 13.5807 13.1145 13.1344 12.3257C12.7094 11.5149 12.1356 10.9014 11.4129 10.485C10.7116 10.0687 9.94646 9.86055 9.11759 9.86055C8.31 9.86055 7.54489 10.0797 6.82225 10.5179C6.1209 10.9343 5.54707 11.5478 5.10075 12.3586C4.67569 13.1693 4.46316 14.1225 4.46316 15.2181C4.46316 16.3137 4.67569 17.2669 5.10075 18.0777C5.54707 18.8885 6.1209 19.513 6.82225 19.9512C7.54489 20.3675 8.31 20.5757 9.11759 20.5757C9.94646 20.5757 10.7116 20.3565 11.4129 19.9183C12.1356 19.4801 12.7094 18.8556 13.1344 18.0448C13.5807 17.234 13.8039 16.2699 13.8039 15.1524Z" fill="white"/>
<path d="M28.5646 24.6185C26.8644 24.6185 25.3342 24.235 23.974 23.4681C22.6137 22.6793 21.5405 21.5727 20.7541 20.1484C19.989 18.7241 19.6064 17.0807 19.6064 15.2181C19.6064 13.3555 19.9996 11.7121 20.786 10.2878C21.5936 8.86356 22.6882 7.76789 24.0696 7.00099C25.451 6.21214 26.9919 5.81772 28.6922 5.81772C30.3924 5.81772 31.9333 6.21214 33.3147 7.00099C34.6961 7.76789 35.78 8.86356 36.5664 10.2878C37.374 11.7121 37.7779 13.3555 37.7779 15.2181C37.7779 17.0807 37.3634 18.7241 36.5346 20.1484C35.727 21.5727 34.6218 22.6793 33.2191 23.4681C31.8376 24.235 30.2861 24.6185 28.5646 24.6185ZM28.5646 20.6086C29.3722 20.6086 30.1267 20.4113 30.8281 20.0169C31.5507 19.6006 32.1246 18.9871 32.5496 18.1763C32.9746 17.3655 33.1872 16.3794 33.1872 15.2181C33.1872 13.487 32.7409 12.1613 31.8482 11.241C30.9769 10.2988 29.9036 9.82768 28.6284 9.82768C27.3532 9.82768 26.2799 10.2988 25.4085 11.241C24.5584 12.1613 24.1334 13.487 24.1334 15.2181C24.1334 16.9492 24.5478 18.2858 25.3767 19.2281C26.2268 20.1484 27.2894 20.6086 28.5646 20.6086Z" fill="white"/>
<path d="M45.0454 9.89342V18.7022C45.0454 19.3158 45.1835 19.7649 45.4598 20.0498C45.7573 20.3127 46.2462 20.4442 46.9263 20.4442H48.9985V24.3227H46.1931C42.4313 24.3227 40.5503 22.4383 40.5503 18.6693V9.89342H38.4463V6.11354H40.5503V1.61055H45.0454V6.11354H48.9985V9.89342H45.0454Z" fill="white"/>
<path d="M58.8498 24.6185C57.1496 24.6185 55.6193 24.235 54.2591 23.4681C52.8989 22.6793 51.8257 21.5727 51.0393 20.1484C50.2742 18.7241 49.8916 17.0807 49.8916 15.2181C49.8916 13.3555 50.2848 11.7121 51.0711 10.2878C51.8787 8.86356 52.9733 7.76789 54.3548 7.00099C55.7362 6.21214 57.2771 5.81772 58.9773 5.81772C60.6775 5.81772 62.2184 6.21214 63.5999 7.00099C64.9813 7.76789 66.0652 8.86356 66.8516 10.2878C67.6592 11.7121 68.063 13.3555 68.063 15.2181C68.063 17.0807 67.6486 18.7241 66.8197 20.1484C66.0121 21.5727 64.9069 22.6793 63.5042 23.4681C62.1228 24.235 60.5713 24.6185 58.8498 24.6185Z" fill="#FFD527"/>
<path d="M80.5923 24.3227L74.5989 16.5657V24.3227H70.1357V0H74.5989V13.8377L80.5285 6.11355H86.3306L78.552 15.251L86.3944 24.3227H80.5923Z" fill="white"/>
</svg>
