<svg width="22" height="22" viewBox="0 0 22 22" fill="none" xmlns="http://www.w3.org/2000/svg">
<g clip-path="url(#clip0_11348_2006)">
<path fill-rule="evenodd" clip-rule="evenodd" d="M2.37642 11.0494C2.37642 15.7651 6.42598 19.4316 11.0599 19.4316C12.4162 19.4316 14.1971 18.9279 15.8141 17.9323C16.9946 17.2055 17.9774 16.286 18.6345 15.2491C18.5694 15.2569 18.5022 15.2649 18.4329 15.2732L18.3919 15.2781C16.3224 15.5245 12.4296 15.988 9.61514 13.1387C6.86095 10.3505 6.97869 6.66448 7.17246 4.36098C7.19752 4.06304 7.23495 3.68146 7.26779 3.34662C7.27905 3.23188 7.28976 3.12263 7.29926 3.02412C7.25942 3.04643 7.21869 3.06979 7.17708 3.09424C6.48028 3.50364 5.6961 4.12645 4.96206 4.93017C3.47908 6.55394 2.37642 8.71274 2.37642 11.0494ZM7.35568 1.66534C7.35593 1.66502 7.3574 1.67122 7.35935 1.68494C7.35641 1.67253 7.35543 1.66567 7.35568 1.66534ZM11.0599 21.5C5.44013 21.5 0.333252 17.0466 0.333252 11.0494C0.333252 5.05207 5.95196 0.500808 8.50592 0.5C9.60352 0.499653 9.47468 1.79975 9.29519 3.61095C9.05703 6.01417 8.7297 9.31722 11.0599 11.6762C13.1803 13.8227 16.2181 13.457 18.4403 13.1894C20.5007 12.9414 21.86 12.7777 21.137 14.7791C19.6342 18.9391 14.6354 21.5 11.0599 21.5Z" fill="url(#paint0_linear_11348_2006)"/>
</g>
<defs>
<linearGradient id="paint0_linear_11348_2006" x1="2.90575" y1="2.94125" x2="21.3332" y2="21.5" gradientUnits="userSpaceOnUse">
<stop offset="0.0769231" stop-color="#FFD527"/>
<stop offset="0.850201" stop-color="#34A853"/>
<stop offset="0.984014" stop-color="#4285F4"/>
</linearGradient>
<clipPath id="clip0_11348_2006">
<rect width="22" height="21" fill="white" transform="translate(0 0.5)"/>
</clipPath>
</defs>
</svg>
