<svg width="88" height="19" viewBox="0 0 88 19" fill="none" xmlns="http://www.w3.org/2000/svg">
<path d="M7.68182 8.40341L6.14205 8.67614C6.07765 8.47917 5.97538 8.29167 5.83523 8.11364C5.69886 7.93561 5.51326 7.78977 5.27841 7.67614C5.04356 7.5625 4.75 7.50568 4.39773 7.50568C3.91667 7.50568 3.51515 7.61364 3.19318 7.82955C2.87121 8.04167 2.71023 8.31629 2.71023 8.65341C2.71023 8.94508 2.81818 9.17992 3.03409 9.35795C3.25 9.53598 3.59848 9.68182 4.07955 9.79545L5.46591 10.1136C6.26894 10.2992 6.86742 10.5852 7.26136 10.9716C7.6553 11.358 7.85227 11.8598 7.85227 12.4773C7.85227 13 7.70076 13.4659 7.39773 13.875C7.09849 14.2803 6.67992 14.5985 6.14205 14.8295C5.60795 15.0606 4.98864 15.1761 4.28409 15.1761C3.30682 15.1761 2.50947 14.9678 1.89205 14.5511C1.27462 14.1307 0.895833 13.5341 0.755682 12.7614L2.39773 12.5114C2.5 12.9394 2.71023 13.2633 3.02841 13.483C3.34659 13.6989 3.76136 13.8068 4.27273 13.8068C4.82955 13.8068 5.27462 13.6913 5.60795 13.4602C5.94129 13.2254 6.10795 12.9394 6.10795 12.6023C6.10795 12.3295 6.00568 12.1004 5.80114 11.9148C5.60038 11.7292 5.29167 11.589 4.875 11.4943L3.39773 11.1705C2.58333 10.9848 1.98106 10.6894 1.59091 10.2841C1.20455 9.87879 1.01136 9.36553 1.01136 8.74432C1.01136 8.22917 1.1553 7.77841 1.44318 7.39205C1.73106 7.00568 2.12879 6.70455 2.63636 6.48864C3.14394 6.26894 3.72538 6.15909 4.38068 6.15909C5.32386 6.15909 6.06629 6.36364 6.60795 6.77273C7.14962 7.17803 7.50758 7.72159 7.68182 8.40341ZM9.72017 18.2727V6.27273H11.3793V7.6875H11.5213C11.6198 7.50568 11.7618 7.29545 11.9474 7.05682C12.133 6.81818 12.3906 6.60985 12.7202 6.43182C13.0497 6.25 13.4853 6.15909 14.027 6.15909C14.7315 6.15909 15.3603 6.33712 15.9134 6.69318C16.4664 7.04924 16.9001 7.5625 17.2145 8.23295C17.5327 8.90341 17.6918 9.71023 17.6918 10.6534C17.6918 11.5966 17.5346 12.4053 17.2202 13.0795C16.9058 13.75 16.474 14.267 15.9247 14.6307C15.3755 14.9905 14.7486 15.1705 14.044 15.1705C13.5137 15.1705 13.08 15.0814 12.7429 14.9034C12.4096 14.7254 12.1482 14.517 11.9588 14.2784C11.7694 14.0398 11.6236 13.8277 11.5213 13.642H11.419V18.2727H9.72017ZM11.3849 10.6364C11.3849 11.25 11.474 11.7879 11.652 12.25C11.83 12.7121 12.0876 13.0739 12.4247 13.3352C12.7618 13.5928 13.1747 13.7216 13.6634 13.7216C14.1709 13.7216 14.5952 13.5871 14.9361 13.3182C15.277 13.0455 15.5346 12.6761 15.7088 12.2102C15.8868 11.7443 15.9759 11.2197 15.9759 10.6364C15.9759 10.0606 15.8887 9.54356 15.7145 9.08523C15.544 8.62689 15.2865 8.26515 14.9418 8C14.6009 7.73485 14.1747 7.60227 13.6634 7.60227C13.1709 7.60227 12.7543 7.72917 12.4134 7.98295C12.0762 8.23674 11.8205 8.59091 11.6463 9.04545C11.4721 9.5 11.3849 10.0303 11.3849 10.6364ZM30.7983 12.0398L30.7869 9.96591H31.0824L34.5597 6.27273H36.5938L32.6278 10.4773H32.3608L30.7983 12.0398ZM29.2358 15V3.36364H30.9347V15H29.2358ZM34.7472 15L31.6222 10.8523L32.7926 9.66477L36.8324 15H34.7472ZM44.6818 8.40341L43.142 8.67614C43.0777 8.47917 42.9754 8.29167 42.8352 8.11364C42.6989 7.93561 42.5133 7.78977 42.2784 7.67614C42.0436 7.5625 41.75 7.50568 41.3977 7.50568C40.9167 7.50568 40.5152 7.61364 40.1932 7.82955C39.8712 8.04167 39.7102 8.31629 39.7102 8.65341C39.7102 8.94508 39.8182 9.17992 40.0341 9.35795C40.25 9.53598 40.5985 9.68182 41.0795 9.79545L42.4659 10.1136C43.2689 10.2992 43.8674 10.5852 44.2614 10.9716C44.6553 11.358 44.8523 11.8598 44.8523 12.4773C44.8523 13 44.7008 13.4659 44.3977 13.875C44.0985 14.2803 43.6799 14.5985 43.142 14.8295C42.608 15.0606 41.9886 15.1761 41.2841 15.1761C40.3068 15.1761 39.5095 14.9678 38.892 14.5511C38.2746 14.1307 37.8958 13.5341 37.7557 12.7614L39.3977 12.5114C39.5 12.9394 39.7102 13.2633 40.0284 13.483C40.3466 13.6989 40.7614 13.8068 41.2727 13.8068C41.8295 13.8068 42.2746 13.6913 42.608 13.4602C42.9413 13.2254 43.108 12.9394 43.108 12.6023C43.108 12.3295 43.0057 12.1004 42.8011 11.9148C42.6004 11.7292 42.2917 11.589 41.875 11.4943L40.3977 11.1705C39.5833 10.9848 38.9811 10.6894 38.5909 10.2841C38.2045 9.87879 38.0114 9.36553 38.0114 8.74432C38.0114 8.22917 38.1553 7.77841 38.4432 7.39205C38.7311 7.00568 39.1288 6.70455 39.6364 6.48864C40.1439 6.26894 40.7254 6.15909 41.3807 6.15909C42.3239 6.15909 43.0663 6.36364 43.608 6.77273C44.1496 7.17803 44.5076 7.72159 44.6818 8.40341ZM46.7202 18.2727V6.27273H48.3793V7.6875H48.5213C48.6198 7.50568 48.7618 7.29545 48.9474 7.05682C49.133 6.81818 49.3906 6.60985 49.7202 6.43182C50.0497 6.25 50.4853 6.15909 51.027 6.15909C51.7315 6.15909 52.3603 6.33712 52.9134 6.69318C53.4664 7.04924 53.9001 7.5625 54.2145 8.23295C54.5327 8.90341 54.6918 9.71023 54.6918 10.6534C54.6918 11.5966 54.5346 12.4053 54.2202 13.0795C53.9058 13.75 53.474 14.267 52.9247 14.6307C52.3755 14.9905 51.7486 15.1705 51.044 15.1705C50.5137 15.1705 50.08 15.0814 49.7429 14.9034C49.4096 14.7254 49.1482 14.517 48.9588 14.2784C48.7694 14.0398 48.6236 13.8277 48.5213 13.642H48.419V18.2727H46.7202ZM48.3849 10.6364C48.3849 11.25 48.474 11.7879 48.652 12.25C48.83 12.7121 49.0876 13.0739 49.4247 13.3352C49.7618 13.5928 50.1747 13.7216 50.6634 13.7216C51.1709 13.7216 51.5952 13.5871 51.9361 13.3182C52.277 13.0455 52.5346 12.6761 52.7088 12.2102C52.8868 11.7443 52.9759 11.2197 52.9759 10.6364C52.9759 10.0606 52.8887 9.54356 52.7145 9.08523C52.544 8.62689 52.2865 8.26515 51.9418 8C51.6009 7.73485 51.1747 7.60227 50.6634 7.60227C50.1709 7.60227 49.7543 7.72917 49.4134 7.98295C49.0762 8.23674 48.8205 8.59091 48.6463 9.04545C48.4721 9.5 48.3849 10.0303 48.3849 10.6364ZM59.1349 15.1932C58.5819 15.1932 58.0819 15.0909 57.6349 14.8864C57.188 14.678 56.8338 14.3769 56.5724 13.983C56.3149 13.589 56.1861 13.1061 56.1861 12.5341C56.1861 12.0417 56.2808 11.6364 56.4702 11.3182C56.6596 11 56.9152 10.7481 57.2372 10.5625C57.5592 10.3769 57.919 10.2367 58.3168 10.142C58.7145 10.0473 59.1198 9.97538 59.5327 9.92614C60.0554 9.86553 60.4796 9.81629 60.8054 9.77841C61.1312 9.73674 61.3679 9.67045 61.5156 9.57955C61.6634 9.48864 61.7372 9.34091 61.7372 9.13636V9.09659C61.7372 8.60038 61.5971 8.21591 61.3168 7.94318C61.0402 7.67045 60.6274 7.53409 60.0781 7.53409C59.5062 7.53409 59.0554 7.66098 58.7259 7.91477C58.4001 8.16477 58.1747 8.44318 58.0497 8.75L56.4531 8.38636C56.6425 7.85606 56.919 7.42803 57.2827 7.10227C57.6501 6.77273 58.0724 6.53409 58.5497 6.38636C59.027 6.23485 59.5289 6.15909 60.0554 6.15909C60.4039 6.15909 60.7732 6.20076 61.1634 6.28409C61.5573 6.36364 61.9247 6.51136 62.2656 6.72727C62.6103 6.94318 62.8925 7.25189 63.1122 7.65341C63.3319 8.05114 63.4418 8.56818 63.4418 9.20455V15H61.7827V13.8068H61.7145C61.6046 14.0265 61.4399 14.2424 61.2202 14.4545C61.0005 14.6667 60.7183 14.8428 60.3736 14.983C60.0289 15.1231 59.616 15.1932 59.1349 15.1932ZM59.5043 13.8295C59.974 13.8295 60.3755 13.7367 60.7088 13.5511C61.0459 13.3655 61.3016 13.1231 61.4759 12.8239C61.6539 12.5208 61.7429 12.197 61.7429 11.8523V10.7273C61.6823 10.7879 61.5649 10.8447 61.3906 10.8977C61.2202 10.947 61.0251 10.9905 60.8054 11.0284C60.5857 11.0625 60.3717 11.0947 60.1634 11.125C59.955 11.1515 59.7808 11.1742 59.6406 11.1932C59.3111 11.2348 59.0099 11.3049 58.7372 11.4034C58.4683 11.5019 58.2524 11.6439 58.0895 11.8295C57.9304 12.0114 57.8509 12.2538 57.8509 12.5568C57.8509 12.9773 58.0062 13.2955 58.3168 13.5114C58.6274 13.7235 59.0232 13.8295 59.5043 13.8295ZM69.3807 15.1761C68.536 15.1761 67.8087 14.9848 67.1989 14.6023C66.5928 14.2159 66.1269 13.6837 65.8011 13.0057C65.4754 12.3277 65.3125 11.5511 65.3125 10.6761C65.3125 9.78977 65.4792 9.00758 65.8125 8.32955C66.1458 7.64773 66.6155 7.11553 67.2216 6.73295C67.8277 6.35038 68.5417 6.15909 69.3636 6.15909C70.0265 6.15909 70.6174 6.2822 71.1364 6.52841C71.6553 6.77083 72.0739 7.11174 72.392 7.55114C72.714 7.99053 72.9053 8.50379 72.9659 9.09091H71.3125C71.2216 8.68182 71.0133 8.32955 70.6875 8.03409C70.3655 7.73864 69.9337 7.59091 69.392 7.59091C68.9186 7.59091 68.5038 7.71591 68.1477 7.96591C67.7955 8.21212 67.5208 8.56439 67.3239 9.02273C67.1269 9.47727 67.0284 10.0152 67.0284 10.6364C67.0284 11.2727 67.125 11.822 67.3182 12.2841C67.5114 12.7462 67.7841 13.1042 68.1364 13.358C68.4924 13.6117 68.911 13.7386 69.392 13.7386C69.714 13.7386 70.0057 13.6799 70.267 13.5625C70.5322 13.4413 70.7538 13.2689 70.9318 13.0455C71.1136 12.822 71.2405 12.553 71.3125 12.2386H72.9659C72.9053 12.803 72.7216 13.3068 72.4148 13.75C72.108 14.1932 71.697 14.5417 71.1818 14.7955C70.6705 15.0492 70.0701 15.1761 69.3807 15.1761ZM78.544 15.1761C77.6842 15.1761 76.9437 14.9924 76.3224 14.625C75.705 14.2538 75.2277 13.733 74.8906 13.0625C74.5573 12.3883 74.3906 11.5985 74.3906 10.6932C74.3906 9.79924 74.5573 9.01136 74.8906 8.32955C75.2277 7.64773 75.6974 7.11553 76.2997 6.73295C76.9058 6.35038 77.6141 6.15909 78.4247 6.15909C78.9171 6.15909 79.3944 6.24053 79.8565 6.40341C80.3187 6.56629 80.7334 6.82197 81.1009 7.17045C81.4683 7.51894 81.758 7.97159 81.9702 8.52841C82.1823 9.08144 82.2884 9.75379 82.2884 10.5455V11.1477H75.3509V9.875H80.6236C80.6236 9.42803 80.5327 9.0322 80.3509 8.6875C80.169 8.33902 79.9134 8.06439 79.5838 7.86364C79.258 7.66288 78.8755 7.5625 78.4361 7.5625C77.9588 7.5625 77.5421 7.67992 77.1861 7.91477C76.8338 8.14583 76.5611 8.44886 76.3679 8.82386C76.1785 9.19508 76.0838 9.59848 76.0838 10.0341V11.0284C76.0838 11.6117 76.1861 12.108 76.3906 12.517C76.599 12.9261 76.8887 13.2386 77.2599 13.4545C77.6312 13.6667 78.0649 13.7727 78.5611 13.7727C78.883 13.7727 79.1766 13.7273 79.4418 13.6364C79.7069 13.5417 79.9361 13.4015 80.1293 13.2159C80.3224 13.0303 80.4702 12.8011 80.5724 12.5284L82.1804 12.8182C82.0516 13.2917 81.8205 13.7064 81.4872 14.0625C81.1577 14.4148 80.7429 14.6894 80.2429 14.8864C79.7467 15.0795 79.1804 15.1761 78.544 15.1761Z" fill="white"/>
<path d="M23.2713 15.1761C22.4531 15.1761 21.7391 14.9886 21.1293 14.6136C20.5194 14.2386 20.0459 13.714 19.7088 13.0398C19.3717 12.3655 19.2031 11.5777 19.2031 10.6761C19.2031 9.77083 19.3717 8.97917 19.7088 8.30114C20.0459 7.62311 20.5194 7.09659 21.1293 6.72159C21.7391 6.34659 22.4531 6.15909 23.2713 6.15909C24.0895 6.15909 24.8035 6.34659 25.4134 6.72159C26.0232 7.09659 26.4967 7.62311 26.8338 8.30114C27.1709 8.97917 27.3395 9.77083 27.3395 10.6761C27.3395 11.5777 27.1709 12.3655 26.8338 13.0398C26.4967 13.714 26.0232 14.2386 25.4134 14.6136C24.8035 14.9886 24.0895 15.1761 23.2713 15.1761ZM23.277 13.75C23.8073 13.75 24.2467 13.6098 24.5952 13.3295C24.9437 13.0492 25.2012 12.6761 25.3679 12.2102C25.5384 11.7443 25.6236 11.2311 25.6236 10.6705C25.6236 10.1136 25.5384 9.60227 25.3679 9.13636C25.2012 8.66667 24.9437 8.28977 24.5952 8.00568C24.2467 7.72159 23.8073 7.57955 23.277 7.57955C22.7429 7.57955 22.2997 7.72159 21.9474 8.00568C21.599 8.28977 21.3395 8.66667 21.169 9.13636C21.0024 9.60227 20.919 10.1136 20.919 10.6705C20.919 11.2311 21.0024 11.7443 21.169 12.2102C21.3395 12.6761 21.599 13.0492 21.9474 13.3295C22.2997 13.6098 22.7429 13.75 23.277 13.75Z" fill="#FFD527"/>
<path d="M23.2667 15C25.4758 15 27.2667 13.2091 27.2667 11C27.2667 8.79086 25.4758 7 23.2667 7C21.0575 7 19.2667 8.79086 19.2667 11C19.2667 13.2091 21.0575 15 23.2667 15Z" fill="#FFD527"/>
</svg>
