<svg width="75" height="15" viewBox="0 0 75 15" fill="none" xmlns="http://www.w3.org/2000/svg">
<g opacity="0.5">
<path d="M6.82884 4.88991L5.07102 5.08167C5.02131 4.90412 4.93431 4.73721 4.81002 4.58097C4.68928 4.42471 4.52592 4.29865 4.31996 4.20277C4.11399 4.10689 3.86186 4.05895 3.56357 4.05895C3.16229 4.05895 2.82493 4.14595 2.55149 4.31996C2.28161 4.49396 2.14844 4.71946 2.15199 4.99645C2.14844 5.23437 2.23544 5.42791 2.413 5.57706C2.59411 5.72621 2.8924 5.84872 3.30788 5.9446L4.70348 6.2429C5.47763 6.4098 6.05291 6.67436 6.42933 7.03658C6.80931 7.39879 7.00107 7.87287 7.00462 8.45881C7.00107 8.97372 6.85014 9.42827 6.55185 9.82244C6.2571 10.2131 5.84695 10.5185 5.32138 10.7386C4.79581 10.9588 4.19212 11.0689 3.5103 11.0689C2.50888 11.0689 1.70277 10.8594 1.09198 10.4403C0.481179 10.0178 0.117188 9.43004 0 8.6772L1.88033 8.49609C1.96556 8.86541 2.14666 9.14418 2.42365 9.33239C2.70064 9.5206 3.06108 9.6147 3.50497 9.6147C3.96307 9.6147 4.33061 9.5206 4.6076 9.33239C4.88814 9.14418 5.02841 8.91158 5.02841 8.63459C5.02841 8.40021 4.93786 8.20668 4.75675 8.05398C4.57919 7.90128 4.3022 7.78409 3.92578 7.70241L2.53019 7.40944C1.74538 7.24609 1.16477 6.97088 0.788349 6.58381C0.411929 6.19318 0.225497 5.69957 0.229048 5.10298C0.225497 4.59872 0.362216 4.16193 0.639209 3.79261C0.919749 3.41974 1.30859 3.1321 1.80575 2.92969C2.30646 2.72372 2.88352 2.62074 3.53693 2.62074C4.49574 2.62074 5.25036 2.82493 5.80078 3.23331C6.35476 3.64169 6.69744 4.19389 6.82884 4.88991ZM8.14464 13.9773V2.72727H10.0409V4.08025H10.1528C10.2522 3.88139 10.3925 3.6701 10.5736 3.44638C10.7547 3.2191 10.9997 3.02557 11.3087 2.86577C11.6176 2.70241 12.0118 2.62074 12.4912 2.62074C13.1233 2.62074 13.6932 2.78231 14.2011 3.10547C14.7124 3.42507 15.1172 3.89915 15.4155 4.5277C15.7174 5.1527 15.8683 5.91974 15.8683 6.82883C15.8683 7.72727 15.7209 8.49077 15.4262 9.11932C15.1315 9.74787 14.7302 10.2273 14.2224 10.5575C13.7145 10.8878 13.1393 11.0529 12.4965 11.0529C12.0278 11.0529 11.6389 10.9748 11.33 10.8185C11.021 10.6623 10.7724 10.4741 10.5842 10.2539C10.3996 10.0302 10.2557 9.81889 10.1528 9.62003H10.0729V13.9773H8.14464ZM10.0356 6.81818C10.0356 7.3473 10.1101 7.81072 10.2593 8.20845C10.412 8.60618 10.6304 8.9169 10.9145 9.14062C11.2021 9.36079 11.5501 9.47088 11.9585 9.47088C12.3846 9.47088 12.7415 9.35724 13.0292 9.12997C13.3168 8.89915 13.5334 8.58487 13.679 8.18714C13.8282 7.78587 13.9028 7.32954 13.9028 6.81818C13.9028 6.31037 13.83 5.85937 13.6844 5.4652C13.5388 5.07102 13.3221 4.76207 13.0345 4.53835C12.7469 4.31463 12.3882 4.20277 11.9585 4.20277C11.5466 4.20277 11.1968 4.31108 10.9091 4.5277C10.6215 4.74432 10.4031 5.04794 10.254 5.43856C10.1084 5.82919 10.0356 6.28906 10.0356 6.81818ZM27.5034 8.34162L27.4981 6.01385H27.807L30.7473 2.72727H33.0005L29.3837 6.75426H28.9842L27.5034 8.34162ZM25.7456 10.9091V0H27.6738V10.9091H25.7456ZM30.8805 10.9091L28.2172 7.18572L29.5169 5.82741L33.187 10.9091H30.8805ZM40.3022 4.88991L38.5444 5.08167C38.4947 4.90412 38.4077 4.73721 38.2834 4.58097C38.1627 4.42471 37.9994 4.29865 37.7934 4.20277C37.5875 4.10689 37.3353 4.05895 37.037 4.05895C36.6357 4.05895 36.2983 4.14595 36.0249 4.31996C35.755 4.49396 35.6219 4.71946 35.6255 4.99645C35.6219 5.23437 35.7088 5.42791 35.8864 5.57706C36.0675 5.72621 36.3658 5.84872 36.7813 5.9446L38.1769 6.2429C38.951 6.4098 39.5263 6.67436 39.9027 7.03658C40.2827 7.39879 40.4746 7.87287 40.4781 8.45881C40.4746 8.97372 40.3235 9.42827 40.0252 9.82244C39.7305 10.2131 39.3203 10.5185 38.7948 10.7386C38.2692 10.9588 37.6655 11.0689 36.9837 11.0689C35.9823 11.0689 35.1762 10.8594 34.5654 10.4403C33.9546 10.0178 33.5906 9.43004 33.4734 8.6772L35.3537 8.49609C35.4389 8.86541 35.6201 9.14418 35.897 9.33239C36.174 9.5206 36.5345 9.6147 36.9784 9.6147C37.4365 9.6147 37.804 9.5206 38.081 9.33239C38.3615 9.14418 38.5019 8.91158 38.5019 8.63459C38.5019 8.40021 38.4112 8.20668 38.2301 8.05398C38.0526 7.90128 37.7757 7.78409 37.3993 7.70241L36.0036 7.40944C35.2188 7.24609 34.6382 6.97088 34.2617 6.58381C33.8853 6.19318 33.6989 5.69957 33.7024 5.10298C33.6989 4.59872 33.8356 4.16193 34.1126 3.79261C34.3931 3.41974 34.782 3.1321 35.2791 2.92969C35.7799 2.72372 36.3569 2.62074 37.0103 2.62074C37.9691 2.62074 38.7238 2.82493 39.2743 3.23331C39.8282 3.64169 40.1708 4.19389 40.3022 4.88991ZM41.618 13.9773V2.72727H43.5143V4.08025H43.6262C43.7256 3.88139 43.8659 3.6701 44.047 3.44638C44.2281 3.2191 44.4732 3.02557 44.7822 2.86577C45.0911 2.70241 45.4852 2.62074 45.9646 2.62074C46.5967 2.62074 47.1667 2.78231 47.6745 3.10547C48.1859 3.42507 48.5907 3.89915 48.889 4.5277C49.1908 5.1527 49.3417 5.91974 49.3417 6.82883C49.3417 7.72727 49.1944 8.49077 48.8996 9.11932C48.6049 9.74787 48.2037 10.2273 47.6959 10.5575C47.1881 10.8878 46.6127 11.0529 45.9699 11.0529C45.5012 11.0529 45.1123 10.9748 44.8034 10.8185C44.4944 10.6623 44.2459 10.4741 44.0577 10.2539C43.873 10.0302 43.7292 9.81889 43.6262 9.62003H43.5463V13.9773H41.618ZM43.509 6.81818C43.509 7.3473 43.5836 7.81072 43.7327 8.20845C43.8854 8.60618 44.1038 8.9169 44.3879 9.14062C44.6756 9.36079 45.0236 9.47088 45.4319 9.47088C45.8581 9.47088 46.215 9.35724 46.5026 9.12997C46.7903 8.89915 47.0069 8.58487 47.1525 8.18714C47.3016 7.78587 47.3762 7.32954 47.3762 6.81818C47.3762 6.31037 47.3034 5.85937 47.1578 5.4652C47.0122 5.07102 46.7956 4.76207 46.5079 4.53835C46.2203 4.31463 45.8616 4.20277 45.4319 4.20277C45.02 4.20277 44.6702 4.31108 44.3826 4.5277C44.0949 4.74432 43.8765 5.04794 43.7274 5.43856C43.5818 5.82919 43.509 6.28906 43.509 6.81818ZM52.8974 11.0742C52.379 11.0742 51.912 10.9819 51.4965 10.7972C51.0846 10.609 50.7579 10.332 50.5164 9.96629C50.2785 9.6005 50.1595 9.1495 50.1595 8.61328C50.1595 8.15163 50.2447 7.76989 50.4152 7.46804C50.5856 7.16619 50.8182 6.92471 51.113 6.74361C51.4077 6.5625 51.7398 6.42578 52.1091 6.33345C52.4819 6.23757 52.8672 6.16832 53.265 6.12571C53.7444 6.07599 54.1332 6.0316 54.4315 5.99254C54.7298 5.94993 54.9464 5.88601 55.0814 5.80078C55.2199 5.712 55.2892 5.57528 55.2892 5.39062V5.35866C55.2892 4.95739 55.1702 4.64666 54.9322 4.42649C54.6943 4.20632 54.3516 4.09623 53.9042 4.09623C53.4319 4.09623 53.0572 4.19922 52.7802 4.40518C52.5068 4.61115 52.3221 4.8544 52.2263 5.13494L50.4258 4.87926C50.5679 4.3821 50.8023 3.96662 51.129 3.63281C51.4557 3.29545 51.8552 3.04332 52.3275 2.87642C52.7998 2.70597 53.3218 2.62074 53.8935 2.62074C54.2877 2.62074 54.6801 2.6669 55.0707 2.75923C55.4613 2.85156 55.8182 3.00426 56.1414 3.21733C56.4645 3.42685 56.7238 3.71271 56.9191 4.07493C57.118 4.43714 57.2174 4.88991 57.2174 5.43324V10.9091H55.3637V9.78516H55.2998C55.1826 10.0124 55.0175 10.2255 54.8044 10.4244C54.5949 10.6197 54.3303 10.7777 54.0107 10.8984C53.6947 11.0156 53.3236 11.0742 52.8974 11.0742ZM53.3981 9.65731C53.7852 9.65731 54.1208 9.58096 54.4049 9.42827C54.689 9.27202 54.9075 9.06605 55.0602 8.81037C55.2164 8.55469 55.2944 8.27592 55.2944 7.97408V7.00994C55.2341 7.05966 55.1311 7.10582 54.9855 7.14844C54.8435 7.19105 54.6837 7.22834 54.5061 7.2603C54.3285 7.29226 54.1528 7.32067 53.9788 7.34552C53.8047 7.37038 53.6538 7.39169 53.526 7.40944C53.2383 7.44851 52.9809 7.51243 52.7536 7.60121C52.5263 7.68998 52.347 7.81427 52.2156 7.97408C52.0842 8.13033 52.0185 8.33274 52.0185 8.58132C52.0185 8.93643 52.1481 9.20454 52.4074 9.38565C52.6666 9.56676 52.9969 9.65731 53.3981 9.65731ZM62.2752 11.0689C61.4584 11.0689 60.7572 10.8896 60.1712 10.5309C59.5889 10.1722 59.1395 9.67685 58.8235 9.04474C58.511 8.40909 58.3547 7.67756 58.3547 6.85014C58.3547 6.01918 58.5145 5.28587 58.8341 4.65021C59.1537 4.01101 59.6047 3.51385 60.1871 3.15873C60.7731 2.80007 61.4655 2.62074 62.2645 2.62074C62.9286 2.62074 63.5164 2.74325 64.0278 2.98828C64.5427 3.22976 64.9529 3.57244 65.2583 4.01633C65.5637 4.45668 65.7377 4.97159 65.7803 5.56108H63.9371C63.8626 5.1669 63.685 4.83842 63.4045 4.57564C63.1275 4.3093 62.7564 4.17614 62.2912 4.17614C61.897 4.17614 61.5508 4.28267 61.2525 4.49574C60.9542 4.70525 60.7216 5.0071 60.5547 5.40128C60.3913 5.79545 60.3097 6.26775 60.3097 6.81818C60.3097 7.37571 60.3913 7.85511 60.5547 8.25639C60.718 8.65412 60.9471 8.96129 61.2418 9.17791C61.5401 9.39098 61.8899 9.49751 62.2912 9.49751C62.5753 9.49751 62.8292 9.44425 63.0529 9.33771C63.2802 9.22763 63.4703 9.0696 63.623 8.86364C63.7757 8.65767 63.8803 8.40731 63.9371 8.11257H65.7803C65.7341 8.69141 65.5637 9.20454 65.2689 9.65199C64.9742 10.0959 64.5729 10.4439 64.0651 10.696C63.5573 10.9446 62.9606 11.0689 62.2752 11.0689ZM70.5358 11.0689C69.7155 11.0689 69.007 10.8984 68.4104 10.5575C67.8174 10.2131 67.3611 9.72656 67.0415 9.09801C66.7219 8.46591 66.562 7.72195 66.562 6.86612C66.562 6.0245 66.7219 5.28587 67.0415 4.65021C67.3646 4.01101 67.8156 3.51385 68.3945 3.15873C68.9733 2.80007 69.6533 2.62074 70.4346 2.62074C70.9388 2.62074 71.4147 2.70241 71.8621 2.86577C72.3131 3.02557 72.7109 3.27415 73.0553 3.6115C73.4033 3.94886 73.6767 4.37855 73.8755 4.90057C74.0744 5.41903 74.1739 6.03693 74.1739 6.75426V7.34552H67.4676V6.04581H72.3256C72.322 5.67649 72.2421 5.34801 72.0859 5.06037C71.9296 4.76918 71.7111 4.54013 71.4306 4.37322C71.1536 4.20632 70.8305 4.12287 70.4612 4.12287C70.067 4.12287 69.7208 4.21875 69.4225 4.41051C69.1242 4.59872 68.8916 4.8473 68.7247 5.15625C68.5614 5.46165 68.4778 5.79723 68.4743 6.163V7.29758C68.4743 7.77344 68.5614 8.18182 68.7354 8.52273C68.9094 8.86008 69.1525 9.11932 69.465 9.30043C69.7775 9.47798 70.1434 9.56676 70.5624 9.56676C70.843 9.56676 71.0969 9.5277 71.3241 9.44957C71.5514 9.3679 71.7485 9.24893 71.9154 9.09268C72.0823 8.93643 72.2083 8.7429 72.2935 8.51207L74.094 8.71449C73.9804 9.19034 73.7638 9.60582 73.4442 9.96089C73.1281 10.3125 72.7233 10.5859 72.2297 10.7813C71.7361 10.973 71.1714 11.0689 70.5358 11.0689Z" fill="white"/>
<path d="M20.9439 11C20.1953 11 19.5217 10.8368 18.9228 10.5105C18.324 10.1748 17.8515 9.70394 17.5053 9.09788C17.1684 8.49185 17 7.79256 17 7C17 6.20744 17.1731 5.50815 17.5193 4.90209C17.8749 4.29606 18.3567 3.82982 18.9649 3.5035C19.5731 3.16783 20.2515 3 21 3C21.7485 3 22.4269 3.16783 23.0351 3.5035C23.6433 3.82982 24.1205 4.29606 24.4667 4.90209C24.8222 5.50815 25 6.20744 25 7C25 7.79256 24.8175 8.49185 24.4526 9.09788C24.0971 9.70394 23.6105 10.1748 22.993 10.5105C22.3848 10.8368 21.7018 11 20.9439 11Z" fill="#FFD527"/>
</g>
</svg>
