<svg width="208" height="94" viewBox="0 0 208 94" fill="none" xmlns="http://www.w3.org/2000/svg">
<path d="M43.2884 31.4986L33.6648 33.2032C33.2623 31.9721 32.6231 30.8002 31.7472 29.6875C30.8949 28.5748 29.7349 27.6634 28.2671 26.9532C26.7993 26.2429 24.9645 25.8878 22.7628 25.8878C19.7562 25.8878 17.2467 26.5625 15.2344 27.912C13.2221 29.2377 12.2159 30.9541 12.2159 33.0611C12.2159 34.884 12.8906 36.3518 14.2401 37.4645C15.5895 38.5772 17.7675 39.4887 20.7742 40.1989L29.4389 42.1875C34.4579 43.3476 38.1984 45.135 40.6605 47.5497C43.1226 49.9645 44.3537 53.1014 44.3537 56.9603C44.3537 60.2273 43.4067 63.1392 41.5128 65.6961C39.6425 68.2292 37.0265 70.2178 33.6648 71.662C30.3267 73.1061 26.456 73.8282 22.0526 73.8282C15.9446 73.8282 10.9612 72.5261 7.10229 69.9219C3.24337 67.2941 0.87595 63.5654 0 58.7358L10.2628 57.1733C10.902 59.8485 12.2159 61.8727 14.2046 63.2458C16.1932 64.5952 18.7855 65.2699 21.9815 65.2699C25.4617 65.2699 28.2434 64.5478 30.3267 63.1037C32.41 61.6359 33.4517 59.8485 33.4517 57.7415C33.4517 56.037 32.8125 54.6047 31.5341 53.4446C30.2794 52.2846 28.3499 51.4086 25.7458 50.8168L16.5128 48.7926C11.4228 47.6326 7.65859 45.786 5.22017 43.2529C2.8054 40.7197 1.59801 37.5119 1.59801 33.6293C1.59801 30.4096 2.49763 27.5924 4.29688 25.1776C6.09609 22.7628 8.58189 20.8807 11.7543 19.5313C14.9266 18.1582 18.5606 17.4716 22.6563 17.4716C28.5511 17.4716 33.1913 18.75 36.5767 21.3068C39.9621 23.84 42.1994 27.2372 43.2884 31.4986ZM50.0281 93.1823V18.1818H60.3974V27.0242H61.2852C61.9007 25.8878 62.7885 24.5739 63.9485 23.0824C65.1086 21.5909 66.7184 20.2889 68.7781 19.1762C70.8377 18.0398 73.5603 17.4716 76.9457 17.4716C81.3491 17.4716 85.279 18.5843 88.7355 20.8097C92.1919 23.0351 94.9026 26.2429 96.868 30.4333C98.856 34.6236 99.851 39.6662 99.851 45.5611C99.851 51.456 98.868 56.5104 96.903 60.7245C94.9381 64.9148 92.2392 68.1463 88.8065 70.4191C85.3737 72.6681 81.4556 73.7926 77.0522 73.7926C73.7378 73.7926 71.0271 73.2363 68.9201 72.1236C66.8368 71.0109 65.2033 69.7088 64.0195 68.2174C62.8358 66.7259 61.9244 65.4001 61.2852 64.2401H60.646V93.1823H50.0281ZM60.4329 45.4546C60.4329 49.2898 60.9892 52.6515 62.1019 55.5398C63.2146 58.4281 64.8245 60.6889 66.9315 62.3225C69.0385 63.9323 71.619 64.7372 74.673 64.7372C77.8453 64.7372 80.4968 63.8968 82.6275 62.2159C84.7582 60.5114 86.368 58.2032 87.457 55.2912C88.5697 52.3793 89.1261 49.1004 89.1261 45.4546C89.1261 41.8561 88.5816 38.6246 87.4926 35.76C86.4272 32.8954 84.8174 30.6345 82.663 28.9773C80.5323 27.3201 77.869 26.4915 74.673 26.4915C71.5953 26.4915 68.9911 27.2846 66.8605 28.8708C64.7534 30.4569 63.1554 32.6705 62.0664 35.5114C60.9774 38.3523 60.4329 41.6667 60.4329 45.4546ZM169.766 54.2259L169.695 41.2642H171.542L193.275 18.1818H205.988L181.201 44.4603H179.532L169.766 54.2259ZM160.001 72.7273V0H170.619V72.7273H160.001ZM194.447 72.7273L174.915 46.804L182.231 39.3821L207.479 72.7273H194.447Z" fill="white"/>
<path d="M129.777 69.7275C143.584 69.7275 154.777 58.5347 154.777 44.7275C154.777 30.9204 143.584 19.7275 129.777 19.7275C115.97 19.7275 104.777 30.9204 104.777 44.7275C104.777 58.5347 115.97 69.7275 129.777 69.7275Z" fill="#FFD527"/>
</svg>
