<svg width="204" height="63" viewBox="0 0 204 63" fill="none" xmlns="http://www.w3.org/2000/svg">
<path d="M76.3489 48.6738C73.1341 48.6738 70.2406 47.973 67.6689 46.5715C65.0965 45.1299 63.0675 43.1076 61.581 40.5048C60.1339 37.902 59.4106 34.8987 59.4106 31.4949C59.4106 28.0911 60.1542 25.0878 61.6407 22.4849C63.168 19.8821 65.2378 17.8798 67.8495 16.4783C70.4612 15.0367 73.3752 14.3159 76.59 14.3159C79.8047 14.3159 82.7179 15.0367 85.3297 16.4783C87.9421 17.8798 89.9908 19.8821 91.478 22.4849C93.0053 25.0878 93.7685 28.0911 93.7685 31.4949C93.7685 34.8987 92.9849 37.902 91.4176 40.5048C89.891 43.1076 87.8008 45.1299 85.149 46.5715C82.5373 47.973 79.6037 48.6738 76.3489 48.6738Z" fill="#FFCE00"/>
<path d="M0 62.2769V13.966H8.24018V18.3126C9.34848 16.6974 10.8905 15.4623 12.8662 14.6073C14.8419 13.7047 17.0104 13.2534 19.3716 13.2534C21.4438 13.2534 23.3954 13.6334 25.2265 14.3935C27.1058 15.1536 28.6961 16.2699 29.9971 17.7425C31.3464 19.2151 32.4065 21.0678 33.1775 23.3004C33.9967 25.4856 34.4063 28.0032 34.4063 30.8534C34.4063 36.7439 32.8884 41.2804 29.8526 44.4632C26.8167 47.5984 22.9375 49.166 18.2151 49.166C16.143 49.166 14.2637 48.8572 12.5771 48.2397C10.8905 47.5747 9.46897 46.6483 8.31246 45.4607V62.2769H0ZM8.31246 33.9887C8.31246 36.4589 9.17985 38.454 10.9146 39.9741C12.6494 41.4467 14.7938 42.183 17.3477 42.183C19.9981 42.183 22.1184 41.2092 23.7086 39.2615C25.2988 37.2664 26.0939 34.5587 26.0939 31.1385C26.0939 27.8132 25.2988 25.1768 23.7086 23.2291C22.1666 21.234 20.0222 20.2364 17.2755 20.2364C14.8661 20.2364 12.7699 21.044 10.9869 22.6591C9.20391 24.2742 8.31246 26.5069 8.31246 29.3571V33.9887ZM39.1792 48.4534V13.966H47.2025V18.5263C48.4073 16.7212 49.9011 15.5099 51.684 14.8923C53.5152 14.2747 55.25 13.966 56.8884 13.966H59.7074V21.3765H56.7438C54.3826 21.3765 52.2623 21.8516 50.383 22.8016C48.5036 23.7042 47.564 25.153 47.564 27.1482V48.4534H39.1792ZM97.4965 48.4534V0H105.809V17.8138C107.302 16.0561 109.013 14.8686 110.941 14.251C112.916 13.586 114.868 13.2534 116.796 13.2534C118.867 13.2534 120.819 13.6334 122.651 14.3935C124.482 15.1536 126.072 16.2699 127.421 17.7425C128.819 19.2151 129.903 21.0678 130.674 23.3004C131.493 25.4856 131.903 28.027 131.903 30.9247C131.903 36.7676 130.385 41.2804 127.349 44.4632C124.361 47.5984 120.53 49.166 115.856 49.166C113.688 49.166 111.736 48.8097 110.001 48.0972C108.314 47.3371 106.821 46.2921 105.52 44.9619V48.4534H97.4965ZM105.809 33.9887C105.809 36.4589 106.676 38.4302 108.411 39.9028C110.146 41.3755 112.29 42.1117 114.844 42.1117C117.494 42.1117 119.59 41.1379 121.133 39.1903C122.723 37.2427 123.518 34.5587 123.518 31.1385C123.518 27.8132 122.747 25.1768 121.205 23.2291C119.663 21.2815 117.519 20.3077 114.772 20.3077C112.362 20.3077 110.266 21.0915 108.483 22.6591C106.7 24.1792 105.809 26.3644 105.809 29.2146V33.9887ZM167.106 32.9198H142.603C142.796 36.0551 143.687 38.454 145.277 40.1166C146.867 41.7317 148.94 42.5393 151.493 42.5393C153.903 42.5393 155.734 41.993 156.987 40.9004C158.24 39.8079 159.059 38.644 159.445 37.4089L166.89 38.7628C166.118 41.613 164.456 44.0594 161.902 46.102C159.396 48.1447 155.879 49.166 151.349 49.166C146.096 49.166 141.952 47.5747 138.916 44.3919C135.929 41.2092 134.435 36.8151 134.435 31.2097C134.435 28.312 134.869 25.7468 135.736 23.5142C136.652 21.234 137.856 19.3576 139.35 17.885C140.892 16.3649 142.675 15.2249 144.699 14.4648C146.771 13.6572 148.987 13.2534 151.349 13.2534C156.36 13.2534 160.24 14.8211 162.986 17.9563C165.733 21.044 167.106 25.248 167.106 30.5684V32.9198ZM151.349 19.8802C149.229 19.8802 147.373 20.5215 145.783 21.804C144.241 23.0391 143.229 24.868 142.747 27.2907H159.155C158.962 25.0105 158.216 23.2054 156.915 21.8753C155.662 20.5452 153.806 19.8802 151.349 19.8802ZM196.194 13.966H204V47.5984C204 50.3536 203.566 52.705 202.699 54.6526C201.88 56.6478 200.7 58.2391 199.157 59.4267C197.664 60.6618 195.857 61.5644 193.736 62.1344C191.616 62.7045 189.303 62.9895 186.797 62.9895C182.653 62.9895 179.135 62.0632 176.244 60.2105C173.352 58.3579 171.545 55.579 170.822 51.8737L178.773 50.8049C179.256 52.705 180.268 54.0826 181.809 54.9377C183.352 55.7927 185.014 56.2202 186.797 56.2202C189.544 56.2202 191.76 55.5789 193.447 54.2964C195.182 53.0138 196.049 50.7811 196.049 47.5984V43.4656C195.037 44.9857 193.616 46.1496 191.784 46.9571C190.002 47.7172 187.881 48.0972 185.423 48.0972C183.207 48.0972 181.135 47.7409 179.207 47.0283C177.28 46.3158 175.618 45.247 174.22 43.8219C172.823 42.3968 171.714 40.6391 170.895 38.549C170.124 36.4113 169.738 33.9411 169.738 31.1385C169.738 25.3905 171.232 20.9727 174.22 17.885C177.256 14.7973 181.159 13.2534 185.929 13.2534C188.195 13.2534 190.219 13.681 192.001 14.536C193.784 15.3911 195.182 16.5787 196.194 18.0988V13.966ZM195.904 32.2785V28.7158C195.904 25.8656 195.037 23.7517 193.302 22.3741C191.616 20.949 189.544 20.2364 187.086 20.2364C184.339 20.2364 182.147 21.1865 180.508 23.0866C178.918 24.9868 178.123 27.5994 178.123 30.9247C178.123 34.1074 178.894 36.6251 180.436 38.4777C181.978 40.3304 184.171 41.2567 187.014 41.2567C189.76 41.2567 191.929 40.4491 193.519 38.834C195.109 37.1714 195.904 34.9862 195.904 32.2785Z" fill="white"/>
</svg>
