<svg width="77" height="23" viewBox="0 0 77 23" fill="none" xmlns="http://www.w3.org/2000/svg">
<path d="M4.125 17.135C3.475 17.135 2.89 17.02 2.37 16.79C1.86 16.55 1.455 16.23 1.155 15.83C0.855 15.42 0.695 14.965 0.675 14.465H2.445C2.475 14.815 2.64 15.11 2.94 15.35C3.25 15.58 3.635 15.695 4.095 15.695C4.575 15.695 4.945 15.605 5.205 15.425C5.475 15.235 5.61 14.995 5.61 14.705C5.61 14.395 5.46 14.165 5.16 14.015C4.87 13.865 4.405 13.7 3.765 13.52C3.145 13.35 2.64 13.185 2.25 13.025C1.86 12.865 1.52 12.62 1.23 12.29C0.95 11.96 0.81 11.525 0.81 10.985C0.81 10.545 0.94 10.145 1.2 9.785C1.46 9.415 1.83 9.125 2.31 8.915C2.8 8.705 3.36 8.6 3.99 8.6C4.93 8.6 5.685 8.84 6.255 9.32C6.835 9.79 7.145 10.435 7.185 11.255H5.475C5.445 10.885 5.295 10.59 5.025 10.37C4.755 10.15 4.39 10.04 3.93 10.04C3.48 10.04 3.135 10.125 2.895 10.295C2.655 10.465 2.535 10.69 2.535 10.97C2.535 11.19 2.615 11.375 2.775 11.525C2.935 11.675 3.13 11.795 3.36 11.885C3.59 11.965 3.93 12.07 4.38 12.2C4.98 12.36 5.47 12.525 5.85 12.695C6.24 12.855 6.575 13.095 6.855 13.415C7.135 13.735 7.28 14.16 7.29 14.69C7.29 15.16 7.16 15.58 6.9 15.95C6.64 16.32 6.27 16.61 5.79 16.82C5.32 17.03 4.765 17.135 4.125 17.135ZM10.0977 9.95C10.3877 9.57 10.7827 9.25 11.2827 8.99C11.7827 8.73 12.3477 8.6 12.9777 8.6C13.6977 8.6 14.3527 8.78 14.9427 9.14C15.5427 9.49 16.0127 9.985 16.3527 10.625C16.6927 11.265 16.8627 12 16.8627 12.83C16.8627 13.66 16.6927 14.405 16.3527 15.065C16.0127 15.715 15.5427 16.225 14.9427 16.595C14.3527 16.955 13.6977 17.135 12.9777 17.135C12.3477 17.135 11.7877 17.01 11.2977 16.76C10.8077 16.5 10.4077 16.18 10.0977 15.8V20.93H8.3877V8.735H10.0977V9.95ZM15.1227 12.83C15.1227 12.26 15.0027 11.77 14.7627 11.36C14.5327 10.94 14.2227 10.625 13.8327 10.415C13.4527 10.195 13.0427 10.085 12.6027 10.085C12.1727 10.085 11.7627 10.195 11.3727 10.415C10.9927 10.635 10.6827 10.955 10.4427 11.375C10.2127 11.795 10.0977 12.29 10.0977 12.86C10.0977 13.43 10.2127 13.93 10.4427 14.36C10.6827 14.78 10.9927 15.1 11.3727 15.32C11.7627 15.54 12.1727 15.65 12.6027 15.65C13.0427 15.65 13.4527 15.54 13.8327 15.32C14.2227 15.09 14.5327 14.76 14.7627 14.33C15.0027 13.9 15.1227 13.4 15.1227 12.83ZM29.8891 12.875L33.6991 17H31.3891L28.3291 13.445V17H26.6191V5.9H28.3291V12.35L31.3291 8.735H33.6991L29.8891 12.875ZM37.1748 17.135C36.5248 17.135 35.9398 17.02 35.4198 16.79C34.9098 16.55 34.5048 16.23 34.2048 15.83C33.9048 15.42 33.7448 14.965 33.7248 14.465H35.4948C35.5248 14.815 35.6898 15.11 35.9898 15.35C36.2998 15.58 36.6848 15.695 37.1448 15.695C37.6248 15.695 37.9948 15.605 38.2548 15.425C38.5248 15.235 38.6598 14.995 38.6598 14.705C38.6598 14.395 38.5098 14.165 38.2098 14.015C37.9198 13.865 37.4548 13.7 36.8148 13.52C36.1948 13.35 35.6898 13.185 35.2998 13.025C34.9098 12.865 34.5698 12.62 34.2798 12.29C33.9998 11.96 33.8598 11.525 33.8598 10.985C33.8598 10.545 33.9898 10.145 34.2498 9.785C34.5098 9.415 34.8798 9.125 35.3598 8.915C35.8498 8.705 36.4098 8.6 37.0398 8.6C37.9798 8.6 38.7348 8.84 39.3048 9.32C39.8848 9.79 40.1948 10.435 40.2348 11.255H38.5248C38.4948 10.885 38.3448 10.59 38.0748 10.37C37.8048 10.15 37.4398 10.04 36.9798 10.04C36.5298 10.04 36.1848 10.125 35.9448 10.295C35.7048 10.465 35.5848 10.69 35.5848 10.97C35.5848 11.19 35.6648 11.375 35.8248 11.525C35.9848 11.675 36.1798 11.795 36.4098 11.885C36.6398 11.965 36.9798 12.07 37.4298 12.2C38.0298 12.36 38.5198 12.525 38.8998 12.695C39.2898 12.855 39.6248 13.095 39.9048 13.415C40.1848 13.735 40.3298 14.16 40.3398 14.69C40.3398 15.16 40.2098 15.58 39.9498 15.95C39.6898 16.32 39.3198 16.61 38.8398 16.82C38.3698 17.03 37.8148 17.135 37.1748 17.135ZM43.1475 9.95C43.4375 9.57 43.8325 9.25 44.3325 8.99C44.8325 8.73 45.3975 8.6 46.0275 8.6C46.7475 8.6 47.4025 8.78 47.9925 9.14C48.5925 9.49 49.0625 9.985 49.4025 10.625C49.7425 11.265 49.9125 12 49.9125 12.83C49.9125 13.66 49.7425 14.405 49.4025 15.065C49.0625 15.715 48.5925 16.225 47.9925 16.595C47.4025 16.955 46.7475 17.135 46.0275 17.135C45.3975 17.135 44.8375 17.01 44.3475 16.76C43.8575 16.5 43.4575 16.18 43.1475 15.8V20.93H41.4375V8.735H43.1475V9.95ZM48.1725 12.83C48.1725 12.26 48.0525 11.77 47.8125 11.36C47.5825 10.94 47.2725 10.625 46.8825 10.415C46.5025 10.195 46.0925 10.085 45.6525 10.085C45.2225 10.085 44.8125 10.195 44.4225 10.415C44.0425 10.635 43.7325 10.955 43.4925 11.375C43.2625 11.795 43.1475 12.29 43.1475 12.86C43.1475 13.43 43.2625 13.93 43.4925 14.36C43.7325 14.78 44.0425 15.1 44.4225 15.32C44.8125 15.54 45.2225 15.65 45.6525 15.65C46.0925 15.65 46.5025 15.54 46.8825 15.32C47.2725 15.09 47.5825 14.76 47.8125 14.33C48.0525 13.9 48.1725 13.4 48.1725 12.83ZM50.2835 12.83C50.2835 12 50.4535 11.265 50.7935 10.625C51.1435 9.985 51.6135 9.49 52.2035 9.14C52.8035 8.78 53.4635 8.6 54.1835 8.6C54.8335 8.6 55.3985 8.73 55.8785 8.99C56.3685 9.24 56.7585 9.555 57.0485 9.935V8.735H58.7735V17H57.0485V15.77C56.7585 16.16 56.3635 16.485 55.8635 16.745C55.3635 17.005 54.7935 17.135 54.1535 17.135C53.4435 17.135 52.7935 16.955 52.2035 16.595C51.6135 16.225 51.1435 15.715 50.7935 15.065C50.4535 14.405 50.2835 13.66 50.2835 12.83ZM57.0485 12.86C57.0485 12.29 56.9285 11.795 56.6885 11.375C56.4585 10.955 56.1535 10.635 55.7735 10.415C55.3935 10.195 54.9835 10.085 54.5435 10.085C54.1035 10.085 53.6935 10.195 53.3135 10.415C52.9335 10.625 52.6235 10.94 52.3835 11.36C52.1535 11.77 52.0385 12.26 52.0385 12.83C52.0385 13.4 52.1535 13.9 52.3835 14.33C52.6235 14.76 52.9335 15.09 53.3135 15.32C53.7035 15.54 54.1135 15.65 54.5435 15.65C54.9835 15.65 55.3935 15.54 55.7735 15.32C56.1535 15.1 56.4585 14.78 56.6885 14.36C56.9285 13.93 57.0485 13.43 57.0485 12.86ZM59.6995 12.86C59.6995 12.01 59.8695 11.265 60.2095 10.625C60.5595 9.975 61.0395 9.475 61.6495 9.125C62.2595 8.775 62.9595 8.6 63.7495 8.6C64.7495 8.6 65.5745 8.84 66.2245 9.32C66.8845 9.79 67.3295 10.465 67.5595 11.345H65.7145C65.5645 10.935 65.3245 10.615 64.9945 10.385C64.6645 10.155 64.2495 10.04 63.7495 10.04C63.0495 10.04 62.4895 10.29 62.0695 10.79C61.6595 11.28 61.4545 11.97 61.4545 12.86C61.4545 13.75 61.6595 14.445 62.0695 14.945C62.4895 15.445 63.0495 15.695 63.7495 15.695C64.7395 15.695 65.3945 15.26 65.7145 14.39H67.5595C67.3195 15.23 66.8695 15.9 66.2095 16.4C65.5495 16.89 64.7295 17.135 63.7495 17.135C62.9595 17.135 62.2595 16.96 61.6495 16.61C61.0395 16.25 60.5595 15.75 60.2095 15.11C59.8695 14.46 59.6995 13.71 59.6995 12.86ZM76.0887 12.665C76.0887 12.975 76.0687 13.255 76.0287 13.505H69.7137C69.7637 14.165 70.0087 14.695 70.4487 15.095C70.8887 15.495 71.4287 15.695 72.0687 15.695C72.9887 15.695 73.6387 15.31 74.0187 14.54H75.8637C75.6137 15.3 75.1587 15.925 74.4987 16.415C73.8487 16.895 73.0387 17.135 72.0687 17.135C71.2787 17.135 70.5687 16.96 69.9387 16.61C69.3187 16.25 68.8287 15.75 68.4687 15.11C68.1187 14.46 67.9437 13.71 67.9437 12.86C67.9437 12.01 68.1137 11.265 68.4537 10.625C68.8037 9.975 69.2887 9.475 69.9087 9.125C70.5387 8.775 71.2587 8.6 72.0687 8.6C72.8487 8.6 73.5437 8.77 74.1537 9.11C74.7637 9.45 75.2387 9.93 75.5787 10.55C75.9187 11.16 76.0887 11.865 76.0887 12.665ZM74.3037 12.125C74.2937 11.495 74.0687 10.99 73.6287 10.61C73.1887 10.23 72.6437 10.04 71.9937 10.04C71.4037 10.04 70.8987 10.23 70.4787 10.61C70.0587 10.98 69.8087 11.485 69.7287 12.125H74.3037Z" fill="white"/>
<path d="M21.3887 17.135C20.6087 17.135 19.9037 16.96 19.2737 16.61C18.6437 16.25 18.1487 15.75 17.7887 15.11C17.4287 14.46 17.2487 13.71 17.2487 12.86C17.2487 12.02 17.4337 11.275 17.8037 10.625C18.1737 9.975 18.6787 9.475 19.3187 9.125C19.9587 8.775 20.6737 8.6 21.4637 8.6C22.2537 8.6 22.9687 8.775 23.6087 9.125C24.2487 9.475 24.7537 9.975 25.1237 10.625C25.4937 11.275 25.6787 12.02 25.6787 12.86C25.6787 13.7 25.4887 14.445 25.1087 15.095C24.7287 15.745 24.2087 16.25 23.5487 16.61C22.8987 16.96 22.1787 17.135 21.3887 17.135ZM21.3887 15.65C21.8287 15.65 22.2387 15.545 22.6187 15.335C23.0087 15.125 23.3237 14.81 23.5637 14.39C23.8037 13.97 23.9237 13.46 23.9237 12.86C23.9237 12.26 23.8087 11.755 23.5787 11.345C23.3487 10.925 23.0437 10.61 22.6637 10.4C22.2837 10.19 21.8737 10.085 21.4337 10.085C20.9937 10.085 20.5837 10.19 20.2037 10.4C19.8337 10.61 19.5387 10.925 19.3187 11.345C19.0987 11.755 18.9887 12.26 18.9887 12.86C18.9887 13.75 19.2137 14.44 19.6637 14.93C20.1237 15.41 20.6987 15.65 21.3887 15.65Z" fill="#FFD527"/>
<circle cx="21.5" cy="12.5" r="3.5" fill="#FFD527"/>
</svg>
