<svg width="250" height="250" viewBox="0 0 250 250" fill="none" xmlns="http://www.w3.org/2000/svg">
<rect width="250" height="250" rx="125" fill="white"/>
<path d="M124.116 188C112.326 188 101.716 185.43 92.2842 180.29C82.8524 175.003 75.4107 167.587 69.9579 158.042C64.6526 148.497 62 137.483 62 125C62 112.517 64.7261 101.503 70.1789 91.958C75.7787 82.4128 83.3686 75.0697 92.9474 69.9301C102.526 64.6434 113.211 62 125 62C136.789 62 147.474 64.6434 157.053 69.9301C166.631 75.0697 174.147 82.4128 179.6 91.958C185.2 101.503 188 112.517 188 125C188 137.483 185.126 148.497 179.379 158.042C173.779 167.587 166.116 175.003 156.389 180.29C146.811 185.43 136.053 188 124.116 188Z" fill="#FFD527"/>
</svg>
