<svg width="76" height="16" viewBox="0 0 76 16" fill="none" xmlns="http://www.w3.org/2000/svg">
<path d="M4.38438 12.235C3.74981 12.235 3.18071 12.13 2.67708 11.92C2.17345 11.7 1.77559 11.4 1.48348 11.02C1.19138 10.63 1.03022 10.185 1 9.685H2.42023C2.46052 10.095 2.6519 10.43 2.99436 10.69C3.3469 10.95 3.80521 11.08 4.36927 11.08C4.89304 11.08 5.30602 10.965 5.60819 10.735C5.91037 10.505 6.06146 10.215 6.06146 9.865C6.06146 9.505 5.9003 9.24 5.57797 9.07C5.25565 8.89 4.75706 8.715 4.0822 8.545C3.46777 8.385 2.96415 8.225 2.57132 8.065C2.18856 7.895 1.85617 7.65 1.57414 7.33C1.30218 7 1.1662 6.57 1.1662 6.04C1.1662 5.62 1.2921 5.235 1.54392 4.885C1.79573 4.535 2.15331 4.26 2.61664 4.06C3.07998 3.85 3.60879 3.745 4.20307 3.745C5.11967 3.745 5.86001 3.975 6.42407 4.435C6.98813 4.895 7.29031 5.525 7.3306 6.325H5.95569C5.92548 5.895 5.74921 5.55 5.42689 5.29C5.11464 5.03 4.69159 4.9 4.15774 4.9C3.66419 4.9 3.27136 5.005 2.97926 5.215C2.68715 5.425 2.5411 5.7 2.5411 6.04C2.5411 6.31 2.62672 6.535 2.79795 6.715C2.97926 6.885 3.20085 7.025 3.46274 7.135C3.7347 7.235 4.10738 7.35 4.58079 7.48C5.17507 7.64 5.65855 7.8 6.03124 7.96C6.40392 8.11 6.72121 8.34 6.98309 8.65C7.25505 8.96 7.39607 9.365 7.40614 9.865C7.40614 10.315 7.28023 10.72 7.02842 11.08C6.77661 11.44 6.41903 11.725 5.95569 11.935C5.50243 12.135 4.97866 12.235 4.38438 12.235ZM9.96649 5.395C10.2385 4.925 10.6413 4.535 11.1752 4.225C11.7191 3.905 12.3486 3.745 13.0638 3.745C13.7991 3.745 14.4639 3.92 15.0582 4.27C15.6625 4.62 16.1359 5.115 16.4784 5.755C16.8209 6.385 16.9921 7.12 16.9921 7.96C16.9921 8.79 16.8209 9.53 16.4784 10.18C16.1359 10.83 15.6625 11.335 15.0582 11.695C14.4639 12.055 13.7991 12.235 13.0638 12.235C12.3587 12.235 11.7342 12.08 11.1903 11.77C10.6565 11.45 10.2485 11.055 9.96649 10.585V16H8.59159V3.88H9.96649V5.395ZM15.587 7.96C15.587 7.34 15.4611 6.8 15.2092 6.34C14.9574 5.88 14.615 5.53 14.1818 5.29C13.7588 5.05 13.2904 4.93 12.7767 4.93C12.2731 4.93 11.8047 5.055 11.3716 5.305C10.9486 5.545 10.6061 5.9 10.3442 6.37C10.0924 6.83 9.96649 7.365 9.96649 7.975C9.96649 8.595 10.0924 9.14 10.3442 9.61C10.6061 10.07 10.9486 10.425 11.3716 10.675C11.8047 10.915 12.2731 11.035 12.7767 11.035C13.2904 11.035 13.7588 10.915 14.1818 10.675C14.615 10.425 14.9574 10.07 15.2092 9.61C15.4611 9.14 15.587 8.59 15.587 7.96ZM31.5786 12.1L28.3303 8.47V12.1H26.9553V1H28.3303V7.525L31.5182 3.88H33.437L29.539 7.975L33.4521 12.1H31.5786ZM36.9067 12.235C36.2722 12.235 35.7031 12.13 35.1994 11.92C34.6958 11.7 34.2979 11.4 34.0058 11.02C33.7137 10.63 33.5526 10.185 33.5223 9.685H34.9426C34.9829 10.095 35.1742 10.43 35.5167 10.69C35.8692 10.95 36.3276 11.08 36.8916 11.08C37.4154 11.08 37.8284 10.965 38.1305 10.735C38.4327 10.505 38.5838 10.215 38.5838 9.865C38.5838 9.505 38.4226 9.24 38.1003 9.07C37.778 8.89 37.2794 8.715 36.6045 8.545C35.9901 8.385 35.4865 8.225 35.0937 8.065C34.7109 7.895 34.3785 7.65 34.0965 7.33C33.8245 7 33.6885 6.57 33.6885 6.04C33.6885 5.62 33.8145 5.235 34.0663 4.885C34.3181 4.535 34.6757 4.26 35.139 4.06C35.6023 3.85 36.1311 3.745 36.7254 3.745C37.642 3.745 38.3824 3.975 38.9464 4.435C39.5105 4.895 39.8127 5.525 39.8529 6.325H38.478C38.4478 5.895 38.2716 5.55 37.9492 5.29C37.637 5.03 37.2139 4.9 36.6801 4.9C36.1865 4.9 35.7937 5.005 35.5016 5.215C35.2095 5.425 35.0634 5.7 35.0634 6.04C35.0634 6.31 35.1491 6.535 35.3203 6.715C35.5016 6.885 35.7232 7.025 35.9851 7.135C36.257 7.235 36.6297 7.35 37.1031 7.48C37.6974 7.64 38.1809 7.8 38.5536 7.96C38.9263 8.11 39.2436 8.34 39.5054 8.65C39.7774 8.96 39.9184 9.365 39.9285 9.865C39.9285 10.315 39.8026 10.72 39.5508 11.08C39.299 11.44 38.9414 11.725 38.478 11.935C38.0248 12.135 37.501 12.235 36.9067 12.235ZM42.4888 5.395C42.7608 4.925 43.1637 4.535 43.6975 4.225C44.2415 3.905 44.871 3.745 45.5861 3.745C46.3214 3.745 46.9862 3.92 47.5805 4.27C48.1849 4.62 48.6583 5.115 49.0007 5.755C49.3432 6.385 49.5144 7.12 49.5144 7.96C49.5144 8.79 49.3432 9.53 49.0007 10.18C48.6583 10.83 48.1849 11.335 47.5805 11.695C46.9862 12.055 46.3214 12.235 45.5861 12.235C44.8811 12.235 44.2566 12.08 43.7126 11.77C43.1788 11.45 42.7709 11.055 42.4888 10.585V16H41.1139V3.88H42.4888V5.395ZM48.1093 7.96C48.1093 7.34 47.9834 6.8 47.7316 6.34C47.4798 5.88 47.1373 5.53 46.7042 5.29C46.2811 5.05 45.8128 4.93 45.2991 4.93C44.7954 4.93 44.3271 5.055 43.894 5.305C43.4709 5.545 43.1284 5.9 42.8666 6.37C42.6147 6.83 42.4888 7.365 42.4888 7.975C42.4888 8.595 42.6147 9.14 42.8666 9.61C43.1284 10.07 43.4709 10.425 43.894 10.675C44.3271 10.915 44.7954 11.035 45.2991 11.035C45.8128 11.035 46.2811 10.915 46.7042 10.675C47.1373 10.425 47.4798 10.07 47.7316 9.61C47.9834 9.14 48.1093 8.59 48.1093 7.96ZM50.055 7.96C50.055 7.12 50.2263 6.385 50.5687 5.755C50.9112 5.115 51.3796 4.62 51.9738 4.27C52.5782 3.92 53.248 3.745 53.9833 3.745C54.7085 3.745 55.3381 3.9 55.8719 4.21C56.4058 4.52 56.8036 4.91 57.0655 5.38V3.88H58.4555V12.1H57.0655V10.57C56.7936 11.05 56.3856 11.45 55.8417 11.77C55.3079 12.08 54.6834 12.235 53.9682 12.235C53.2329 12.235 52.5681 12.055 51.9738 11.695C51.3796 11.335 50.9112 10.83 50.5687 10.18C50.2263 9.53 50.055 8.79 50.055 7.96ZM57.0655 7.975C57.0655 7.355 56.9396 6.815 56.6878 6.355C56.436 5.895 56.0935 5.545 55.6604 5.305C55.2374 5.055 54.769 4.93 54.2553 4.93C53.7416 4.93 53.2732 5.05 52.8502 5.29C52.4271 5.53 52.0897 5.88 51.8379 6.34C51.5861 6.8 51.4601 7.34 51.4601 7.96C51.4601 8.59 51.5861 9.14 51.8379 9.61C52.0897 10.07 52.4271 10.425 52.8502 10.675C53.2732 10.915 53.7416 11.035 54.2553 11.035C54.769 11.035 55.2374 10.915 55.6604 10.675C56.0935 10.425 56.436 10.07 56.6878 9.61C56.9396 9.14 57.0655 8.595 57.0655 7.975ZM59.5098 7.975C59.5098 7.125 59.6811 6.385 60.0235 5.755C60.366 5.115 60.8394 4.62 61.4438 4.27C62.0582 3.92 62.7582 3.745 63.5439 3.745C64.5612 3.745 65.3972 3.99 66.0519 4.48C66.7167 4.97 67.1549 5.65 67.3664 6.52H65.8857C65.7447 6.02 65.4677 5.625 65.0548 5.335C64.6519 5.045 64.1482 4.9 63.5439 4.9C62.7582 4.9 62.1237 5.17 61.6402 5.71C61.1567 6.24 60.9149 6.995 60.9149 7.975C60.9149 8.965 61.1567 9.73 61.6402 10.27C62.1237 10.81 62.7582 11.08 63.5439 11.08C64.1482 11.08 64.6519 10.94 65.0548 10.66C65.4577 10.38 65.7347 9.98 65.8857 9.46H67.3664C67.1448 10.3 66.7016 10.975 66.0368 11.485C65.3721 11.985 64.5411 12.235 63.5439 12.235C62.7582 12.235 62.0582 12.06 61.4438 11.71C60.8394 11.36 60.366 10.865 60.0235 10.225C59.6811 9.585 59.5098 8.835 59.5098 7.975ZM76 7.675C76 7.935 75.9849 8.21 75.9547 8.5H69.337C69.3874 9.31 69.6644 9.945 70.168 10.405C70.6817 10.855 71.3012 11.08 72.0264 11.08C72.6207 11.08 73.1142 10.945 73.507 10.675C73.9099 10.395 74.192 10.025 74.3531 9.565H75.8338C75.6122 10.355 75.169 11 74.5042 11.5C73.8394 11.99 73.0135 12.235 72.0264 12.235C71.2407 12.235 70.5356 12.06 69.9111 11.71C69.2967 11.36 68.8132 10.865 68.4607 10.225C68.1082 9.575 67.9319 8.825 67.9319 7.975C67.9319 7.125 68.1031 6.38 68.4456 5.74C68.7881 5.1 69.2665 4.61 69.8809 4.27C70.5054 3.92 71.2206 3.745 72.0264 3.745C72.812 3.745 73.507 3.915 74.1114 4.255C74.7158 4.595 75.1791 5.065 75.5014 5.665C75.8338 6.255 76 6.925 76 7.675ZM74.5798 7.39C74.5798 6.87 74.4639 6.425 74.2323 6.055C74.0006 5.675 73.6833 5.39 73.2804 5.2C72.8876 5 72.4494 4.9 71.9659 4.9C71.2709 4.9 70.6767 5.12 70.1831 5.56C69.6996 6 69.4226 6.61 69.3521 7.39H74.5798Z" fill="white"/>
<path d="M21.9439 12C21.1953 12 20.5217 11.8368 19.9228 11.5105C19.324 11.1748 18.8515 10.7039 18.5053 10.0979C18.1684 9.49185 18 8.79256 18 8C18 7.20744 18.1731 6.50815 18.5193 5.90209C18.8749 5.29606 19.3567 4.82982 19.9649 4.5035C20.5731 4.16783 21.2515 4 22 4C22.7485 4 23.4269 4.16783 24.0351 4.5035C24.6433 4.82982 25.1205 5.29606 25.4667 5.90209C25.8222 6.50815 26 7.20744 26 8C26 8.79256 25.8175 9.49185 25.4526 10.0979C25.0971 10.7039 24.6105 11.1748 23.993 11.5105C23.3848 11.8368 22.7018 12 21.9439 12Z" fill="#FFD527"/>
</svg>
