<svg width="74" height="15" viewBox="0 0 74 15" fill="none" xmlns="http://www.w3.org/2000/svg">
<g clip-path="url(#clip0_11269_1854)">
<path d="M7.2017 4.8157L5.75817 5.07138C5.6978 4.88672 5.60192 4.71094 5.47053 4.54403C5.34268 4.37713 5.16868 4.24041 4.94851 4.13388C4.72834 4.02734 4.45313 3.97408 4.12287 3.97408C3.67188 3.97408 3.29545 4.07528 2.99361 4.2777C2.69176 4.47656 2.54084 4.73402 2.54084 5.05007C2.54084 5.32351 2.64205 5.54368 2.84446 5.71058C3.04688 5.87749 3.37358 6.0142 3.82457 6.12074L5.12429 6.41903C5.87713 6.59304 6.43821 6.86115 6.80753 7.22337C7.17685 7.58558 7.36151 8.05611 7.36151 8.63494C7.36151 9.125 7.21946 9.56179 6.93537 9.94531C6.65483 10.3253 6.26243 10.6236 5.75817 10.8402C5.25746 11.0568 4.67685 11.1651 4.01634 11.1651C3.10014 11.1651 2.35263 10.9698 1.77379 10.5792C1.19496 10.185 0.839842 9.62571 0.70845 8.90128L2.24787 8.6669C2.34375 9.06818 2.54084 9.3718 2.83913 9.57777C3.13743 9.78018 3.52628 9.88139 4.00568 9.88139C4.5277 9.88139 4.94496 9.77308 5.25746 9.55646C5.56996 9.33629 5.72621 9.06818 5.72621 8.75213C5.72621 8.49645 5.63033 8.28161 5.43857 8.1076C5.25036 7.93359 4.96094 7.8022 4.57031 7.71342L3.18537 7.4098C2.42188 7.2358 1.85724 6.95881 1.49148 6.57884C1.12926 6.19886 0.948151 5.71768 0.948151 5.1353C0.948151 4.65234 1.0831 4.22976 1.35298 3.86754C1.62287 3.50533 1.99574 3.22301 2.47159 3.0206C2.94744 2.81463 3.49254 2.71165 4.10689 2.71165C4.99112 2.71165 5.68714 2.90341 6.19496 3.28693C6.70277 3.6669 7.03835 4.17649 7.2017 4.8157ZM8.66266 14.0682V2.81818H10.2181V4.14453H10.3512C10.4436 3.97408 10.5767 3.77699 10.7507 3.55327C10.9247 3.32955 11.1662 3.13423 11.4752 2.96733C11.7841 2.79688 12.1925 2.71165 12.7003 2.71165C13.3608 2.71165 13.9503 2.87855 14.4688 3.21236C14.9872 3.54616 15.3938 4.02734 15.6886 4.65589C15.9869 5.28445 16.136 6.04084 16.136 6.92507C16.136 7.8093 15.9887 8.56747 15.6939 9.19957C15.3992 9.82812 14.9943 10.3129 14.4794 10.6538C13.9645 10.9911 13.3768 11.1598 12.7163 11.1598C12.2191 11.1598 11.8125 11.0763 11.4965 10.9094C11.184 10.7425 10.9389 10.5472 10.7614 10.3235C10.5838 10.0998 10.4471 9.90092 10.3512 9.72692H10.2553V14.0682H8.66266ZM10.2234 6.90909C10.2234 7.48437 10.3068 7.98864 10.4737 8.42188C10.6406 8.85511 10.8821 9.19425 11.1982 9.43928C11.5142 9.68075 11.9013 9.80149 12.3594 9.80149C12.8352 9.80149 13.233 9.67543 13.5526 9.4233C13.8722 9.16761 14.1137 8.82138 14.277 8.38459C14.4439 7.9478 14.5274 7.45597 14.5274 6.90909C14.5274 6.36932 14.4457 5.88459 14.2823 5.4549C14.1225 5.02521 13.8811 4.68608 13.5579 4.4375C13.2383 4.18892 12.8388 4.06463 12.3594 4.06463C11.8977 4.06463 11.5071 4.18359 11.1875 4.42152C10.8715 4.65945 10.6318 4.99148 10.4684 5.41761C10.3051 5.84375 10.2234 6.34091 10.2234 6.90909ZM27.5234 8.22479L27.5127 6.28054H27.7897L31.0497 2.81818H32.9566L29.2386 6.75994H28.9882L27.5234 8.22479ZM26.0586 11V0.0909119H27.6512V11H26.0586ZM31.2255 11L28.2958 7.11151L29.3931 5.99822L33.1804 11H31.2255ZM40.0892 4.8157L38.6457 5.07138C38.5853 4.88672 38.4894 4.71094 38.358 4.54403C38.2302 4.37713 38.0562 4.24041 37.836 4.13388C37.6158 4.02734 37.3406 3.97408 37.0104 3.97408C36.5594 3.97408 36.183 4.07528 35.8811 4.2777C35.5793 4.47656 35.4283 4.73402 35.4283 5.05007C35.4283 5.32351 35.5295 5.54368 35.732 5.71058C35.9344 5.87749 36.2611 6.0142 36.7121 6.12074L38.0118 6.41903C38.7646 6.59304 39.3257 6.86115 39.695 7.22337C40.0643 7.58558 40.249 8.05611 40.249 8.63494C40.249 9.125 40.107 9.56179 39.8229 9.94531C39.5423 10.3253 39.1499 10.6236 38.6457 10.8402C38.145 11.0568 37.5643 11.1651 36.9038 11.1651C35.9876 11.1651 35.2401 10.9698 34.6613 10.5792C34.0825 10.185 33.7273 9.62571 33.596 8.90128L35.1354 8.6669C35.2313 9.06818 35.4283 9.3718 35.7266 9.57777C36.0249 9.78018 36.4138 9.88139 36.8932 9.88139C37.4152 9.88139 37.8325 9.77308 38.145 9.55646C38.4575 9.33629 38.6137 9.06818 38.6137 8.75213C38.6137 8.49645 38.5178 8.28161 38.3261 8.1076C38.1379 7.93359 37.8484 7.8022 37.4578 7.71342L36.0729 7.4098C35.3094 7.2358 34.7447 6.95881 34.379 6.57884C34.0168 6.19886 33.8357 5.71768 33.8357 5.1353C33.8357 4.65234 33.9706 4.22976 34.2405 3.86754C34.5104 3.50533 34.8832 3.22301 35.3591 3.0206C35.8349 2.81463 36.38 2.71165 36.9944 2.71165C37.8786 2.71165 38.5746 2.90341 39.0825 3.28693C39.5903 3.6669 39.9259 4.17649 40.0892 4.8157ZM41.5502 14.0682V2.81818H43.1056V4.14453H43.2387C43.3311 3.97408 43.4642 3.77699 43.6382 3.55327C43.8122 3.32955 44.0537 3.13423 44.3627 2.96733C44.6716 2.79688 45.08 2.71165 45.5878 2.71165C46.2483 2.71165 46.8378 2.87855 47.3563 3.21236C47.8747 3.54616 48.2813 4.02734 48.5761 4.65589C48.8744 5.28445 49.0235 6.04084 49.0235 6.92507C49.0235 7.8093 48.8762 8.56747 48.5814 9.19957C48.2867 9.82812 47.8818 10.3129 47.3669 10.6538C46.852 10.9911 46.2643 11.1598 45.6038 11.1598C45.1066 11.1598 44.7 11.0763 44.384 10.9094C44.0715 10.7425 43.8264 10.5472 43.6489 10.3235C43.4713 10.0998 43.3346 9.90092 43.2387 9.72692H43.1428V14.0682H41.5502ZM43.1109 6.90909C43.1109 7.48437 43.1943 7.98864 43.3612 8.42188C43.5281 8.85511 43.7696 9.19425 44.0857 9.43928C44.4017 9.68075 44.7888 9.80149 45.2469 9.80149C45.7227 9.80149 46.1205 9.67543 46.4401 9.4233C46.7597 9.16761 47.0012 8.82138 47.1645 8.38459C47.3314 7.9478 47.4149 7.45597 47.4149 6.90909C47.4149 6.36932 47.3332 5.88459 47.1698 5.4549C47.01 5.02521 46.7686 4.68608 46.4454 4.4375C46.1258 4.18892 45.7263 4.06463 45.2469 4.06463C44.7852 4.06463 44.3946 4.18359 44.075 4.42152C43.759 4.65945 43.5193 4.99148 43.3559 5.41761C43.1926 5.84375 43.1109 6.34091 43.1109 6.90909ZM52.739 11.1811C52.2205 11.1811 51.7518 11.0852 51.3328 10.8935C50.9137 10.6982 50.5817 10.4158 50.3367 10.0465C50.0952 9.6772 49.9744 9.22443 49.9744 8.68821C49.9744 8.22656 50.0632 7.84659 50.2408 7.5483C50.4183 7.25 50.658 7.01385 50.9599 6.83984C51.2617 6.66584 51.5991 6.53445 51.972 6.44567C52.3448 6.35689 52.7248 6.28942 53.1119 6.24325C53.6019 6.18643 53.9997 6.14027 54.3051 6.10476C54.6105 6.0657 54.8324 6.00355 54.9709 5.91832C55.1094 5.8331 55.1786 5.6946 55.1786 5.50284V5.46555C55.1786 5.00035 55.0472 4.63991 54.7845 4.38423C54.5252 4.12855 54.1382 4.00071 53.6232 4.00071C53.087 4.00071 52.6644 4.11967 52.3555 4.3576C52.0501 4.59197 51.8388 4.85298 51.7216 5.14062L50.2248 4.79972C50.4024 4.30256 50.6616 3.90128 51.0025 3.59588C51.347 3.28693 51.7429 3.06321 52.1904 2.92472C52.6378 2.78267 53.1083 2.71165 53.6019 2.71165C53.9286 2.71165 54.2749 2.75071 54.6406 2.82884C55.01 2.90341 55.3544 3.0419 55.674 3.24432C55.9972 3.44673 56.2617 3.73615 56.4677 4.11257C56.6737 4.48544 56.7767 4.97017 56.7767 5.56676V11H55.2213V9.88139H55.1573C55.0543 10.0874 54.8999 10.2898 54.6939 10.4886C54.4879 10.6875 54.2234 10.8526 53.9002 10.984C53.5771 11.1154 53.19 11.1811 52.739 11.1811ZM53.0852 9.9027C53.5256 9.9027 53.902 9.8157 54.2145 9.64169C54.5306 9.46768 54.7703 9.24041 54.9336 8.95987C55.1005 8.67578 55.184 8.37216 55.184 8.04901V6.99432C55.1271 7.05114 55.0171 7.1044 54.8537 7.15412C54.6939 7.20028 54.511 7.24112 54.3051 7.27663C54.0991 7.30859 53.8985 7.33878 53.7031 7.36719C53.5078 7.39205 53.3445 7.41335 53.2131 7.43111C52.9041 7.47017 52.6218 7.53587 52.3661 7.6282C52.114 7.72053 51.9116 7.85369 51.7589 8.0277C51.6097 8.19815 51.5352 8.42543 51.5352 8.70952C51.5352 9.10369 51.6808 9.40199 51.972 9.6044C52.2632 9.80327 52.6343 9.9027 53.0852 9.9027ZM61.8944 11.1651C61.1025 11.1651 60.4207 10.9858 59.8489 10.6271C59.2808 10.2649 58.844 9.76598 58.5386 9.13033C58.2332 8.49467 58.0805 7.76669 58.0805 6.94638C58.0805 6.11541 58.2367 5.3821 58.5492 4.74645C58.8617 4.10724 59.3021 3.60831 59.8702 3.24964C60.4384 2.89098 61.1078 2.71165 61.8784 2.71165C62.4999 2.71165 63.0538 2.82706 63.5403 3.05788C64.0268 3.28516 64.4192 3.60476 64.7175 4.01669C65.0194 4.42862 65.1987 4.9098 65.2555 5.46023H63.7055C63.6202 5.0767 63.4249 4.74645 63.1195 4.46946C62.8177 4.19247 62.4129 4.05398 61.905 4.05398C61.4611 4.05398 61.0723 4.17116 60.7385 4.40554C60.4082 4.63636 60.1508 4.96662 59.9661 5.39631C59.7815 5.82244 59.6891 6.3267 59.6891 6.90909C59.6891 7.50568 59.7797 8.0206 59.9608 8.45384C60.1419 8.88707 60.3976 9.22266 60.7278 9.46058C61.0616 9.69851 61.454 9.81747 61.905 9.81747C62.2069 9.81747 62.4803 9.76243 62.7254 9.65234C62.9739 9.53871 63.1817 9.37713 63.3486 9.16761C63.519 8.9581 63.638 8.70597 63.7055 8.41122H65.2555C65.1987 8.94034 65.0265 9.41264 64.7388 9.82812C64.4512 10.2436 64.0659 10.5703 63.583 10.8082C63.1035 11.0462 62.5407 11.1651 61.8944 11.1651ZM70.035 11.1651C69.2289 11.1651 68.5347 10.9929 67.9523 10.6484C67.3735 10.3004 66.926 9.81214 66.61 9.18359C66.2975 8.55149 66.1412 7.81108 66.1412 6.96236C66.1412 6.12429 66.2975 5.38565 66.61 4.74645C66.926 4.10724 67.3664 3.60831 67.931 3.24964C68.4992 2.89098 69.1632 2.71165 69.9232 2.71165C70.3848 2.71165 70.8323 2.788 71.2655 2.9407C71.6987 3.09339 72.0876 3.3331 72.4321 3.6598C72.7765 3.98651 73.0482 4.41087 73.247 4.93288C73.4459 5.45135 73.5453 6.08168 73.5453 6.82386V7.38849H67.0414V6.19531H71.9846C71.9846 5.77628 71.8994 5.40518 71.7289 5.08203C71.5585 4.75533 71.3188 4.49787 71.0098 4.30966C70.7044 4.12145 70.3458 4.02734 69.9338 4.02734C69.4864 4.02734 69.0958 4.13743 68.762 4.3576C68.4317 4.57422 68.176 4.85831 67.9949 5.20987C67.8173 5.55788 67.7286 5.93608 67.7286 6.34446V7.27663C67.7286 7.82351 67.8245 8.28871 68.0162 8.67223C68.2115 9.05575 68.4832 9.34872 68.8312 9.55114C69.1792 9.75 69.5858 9.84943 70.051 9.84943C70.3529 9.84943 70.6281 9.80682 70.8767 9.72159C71.1252 9.63281 71.3401 9.50142 71.5212 9.32741C71.7023 9.15341 71.8408 8.93857 71.9367 8.68288L73.4441 8.95455C73.3234 9.39844 73.1068 9.78729 72.7943 10.1211C72.4853 10.4513 72.0965 10.7088 71.6277 10.8935C71.1625 11.0746 70.6316 11.1651 70.035 11.1651Z" fill="white"/>
<path d="M20.9439 11C20.1953 11 19.5217 10.8368 18.9228 10.5105C18.324 10.1748 17.8515 9.70394 17.5053 9.09788C17.1684 8.49185 17 7.79256 17 7C17 6.20744 17.1731 5.50815 17.5193 4.90209C17.8749 4.29606 18.3567 3.82982 18.9649 3.5035C19.5731 3.16783 20.2515 3 21 3C21.7485 3 22.4269 3.16783 23.0351 3.5035C23.6433 3.82982 24.1205 4.29606 24.4667 4.90209C24.8222 5.50815 25 6.20744 25 7C25 7.79256 24.8175 8.49185 24.4526 9.09788C24.0971 9.70394 23.6105 10.1748 22.993 10.5105C22.3848 10.8368 21.7018 11 20.9439 11Z" fill="#FFD527"/>
</g>
<defs>
<clipPath id="clip0_11269_1854">
<rect width="74" height="15" fill="white"/>
</clipPath>
</defs>
</svg>
