<svg width="96" height="42" viewBox="0 0 96 42" fill="none" xmlns="http://www.w3.org/2000/svg">
<path d="M10.5206 31.3692C8.66196 31.3692 6.99463 31.0412 5.51863 30.3852C4.04263 29.7019 2.8673 28.7862 1.99263 27.6382C1.1453 26.4902 0.680633 25.2192 0.598633 23.8252H6.37963C6.48896 24.6999 6.91263 25.4242 7.65063 25.9982C8.41596 26.5722 9.35896 26.8592 10.4796 26.8592C11.5729 26.8592 12.4203 26.6405 13.0216 26.2032C13.6503 25.7659 13.9646 25.2055 13.9646 24.5222C13.9646 23.7842 13.5819 23.2375 12.8166 22.8822C12.0786 22.4995 10.8896 22.0895 9.24963 21.6522C7.55496 21.2422 6.16096 20.8185 5.06763 20.3812C4.00163 19.9439 3.0723 19.2742 2.27963 18.3722C1.5143 17.4702 1.13163 16.2539 1.13163 14.7232C1.13163 13.4659 1.48696 12.3179 2.19763 11.2792C2.93563 10.2405 3.9743 9.42049 5.31363 8.81916C6.6803 8.21783 8.2793 7.91716 10.1106 7.91716C12.8166 7.91716 14.9759 8.60049 16.5886 9.96716C18.2013 11.3065 19.0896 13.1242 19.2536 15.4202H13.7596C13.6776 14.5182 13.2949 13.8075 12.6116 13.2882C11.9556 12.7415 11.0673 12.4682 9.94663 12.4682C8.90796 12.4682 8.10163 12.6595 7.52763 13.0422C6.98096 13.4249 6.70763 13.9579 6.70763 14.6412C6.70763 15.4065 7.0903 15.9942 7.85563 16.4042C8.62096 16.7869 9.80996 17.1832 11.4226 17.5932C13.0626 18.0032 14.4156 18.4269 15.4816 18.8642C16.5476 19.3015 17.4633 19.9849 18.2286 20.9142C19.0213 21.8162 19.4313 23.0189 19.4586 24.5222C19.4586 25.8342 19.0896 27.0095 18.3516 28.0482C17.6409 29.0869 16.6023 29.9069 15.2356 30.5082C13.8963 31.0822 12.3246 31.3692 10.5206 31.3692ZM28.6804 11.5662C29.4184 10.5275 30.4297 9.66649 31.7144 8.98316C33.0264 8.27249 34.5161 7.91716 36.1834 7.91716C38.1241 7.91716 39.8734 8.39549 41.4314 9.35216C43.0167 10.3089 44.2604 11.6755 45.1624 13.4522C46.0917 15.2015 46.5564 17.2379 46.5564 19.5612C46.5564 21.8845 46.0917 23.9482 45.1624 25.7522C44.2604 27.5289 43.0167 28.9092 41.4314 29.8932C39.8734 30.8772 38.1241 31.3692 36.1834 31.3692C34.5161 31.3692 33.0401 31.0275 31.7554 30.3442C30.4981 29.6609 29.4731 28.7999 28.6804 27.7612V41.8242H22.9404V8.28616H28.6804V11.5662ZM40.6934 19.5612C40.6934 18.1945 40.4064 17.0192 39.8324 16.0352C39.2857 15.0239 38.5477 14.2585 37.6184 13.7392C36.7164 13.2199 35.7324 12.9602 34.6664 12.9602C33.6277 12.9602 32.6437 13.2335 31.7144 13.7802C30.8124 14.2995 30.0744 15.0649 29.5004 16.0762C28.9537 17.0875 28.6804 18.2765 28.6804 19.6432C28.6804 21.0099 28.9537 22.1989 29.5004 23.2102C30.0744 24.2215 30.8124 25.0005 31.7144 25.5472C32.6437 26.0665 33.6277 26.3262 34.6664 26.3262C35.7324 26.3262 36.7164 26.0529 37.6184 25.5062C38.5477 24.9595 39.2857 24.1805 39.8324 23.1692C40.4064 22.1579 40.6934 20.9552 40.6934 19.5612ZM87.861 31.0002L80.153 21.3242V31.0002H74.413V0.660156H80.153V17.9212L87.779 8.28616H95.241L85.237 19.6842L95.323 31.0002H87.861Z" fill="white"/>
<path d="M60.4305 30.4248C58.261 30.4248 56.3085 29.947 54.5729 28.9914C52.8373 28.0086 51.4678 26.6298 50.4644 24.8552C49.4881 23.0807 49 21.0331 49 18.7124C49 16.3917 49.5017 14.3441 50.5051 12.5695C51.5356 10.795 52.9322 9.42981 54.6949 8.47429C56.4576 7.49143 58.4238 7 60.5932 7C62.7627 7 64.7288 7.49143 66.4915 8.47429C68.2542 9.42981 69.6373 10.795 70.6407 12.5695C71.6712 14.3441 72.1864 16.3917 72.1864 18.7124C72.1864 21.0331 71.6576 23.0807 70.6 24.8552C69.5695 26.6298 68.1593 28.0086 66.3695 28.9914C64.6068 29.947 62.6271 30.4248 60.4305 30.4248Z" fill="#FFD527"/>
</svg>
