<svg width="63" height="63" viewBox="0 0 63 63" fill="none" xmlns="http://www.w3.org/2000/svg">
<path d="M31.0586 63C25.1639 63 19.8582 61.7149 15.1427 59.1451C10.4259 56.5017 6.70531 52.7935 3.97962 48.0209C1.32611 43.2483 0 37.7413 0 31.5C0 25.2587 1.36347 19.7517 4.08915 14.979C6.88958 10.2063 10.6849 6.53482 15.4739 3.96502C20.2628 1.32172 25.606 0 31.5007 0C37.3953 0 42.7372 1.32172 47.5261 3.96502C52.3164 6.53482 56.073 10.2063 58.8 14.979C61.6004 19.7517 63 25.2587 63 31.5C63 37.7413 61.5631 43.2483 58.6892 48.0209C55.89 52.7935 52.0573 56.5017 47.1949 59.1451C42.4059 61.7149 37.0267 63 31.0586 63Z" fill="#FFCE00"/>
</svg>
