<svg width="242" height="69" viewBox="0 0 242 69" fill="none" xmlns="http://www.w3.org/2000/svg">
<g clip-path="url(#clip0_978_2237)">
<path d="M0.5 68.3999V1.39991H8.5V7.79991C10.2333 5.33324 12.5667 3.49991 15.5 2.29991C18.4333 1.03324 21.5333 0.399902 24.8 0.399902C27.7333 0.399902 30.4667 0.933235 33 1.99991C35.6 2.99991 37.8667 4.53324 39.8 6.59991C41.7333 8.59991 43.2333 11.1332 44.3 14.1999C45.4333 17.2666 46 20.7666 46 24.6999C46 32.5666 43.9333 38.7666 39.8 43.2999C35.6667 47.7666 30.2333 49.9999 23.5 49.9999C20.3667 49.9999 17.5 49.4666 14.9 48.3999C12.3667 47.3332 10.2333 45.7999 8.5 43.7999V68.3999H0.5ZM8.5 29.0999C8.5 33.4332 10 36.8332 13 39.2999C16.0667 41.6999 19.6 42.8999 23.6 42.8999C28 42.8999 31.5 41.2666 34.1 37.9999C36.7 34.7332 38 30.3999 38 24.9999C38 19.7999 36.7 15.5999 34.1 12.3999C31.5 9.13324 27.9333 7.49991 23.4 7.49991C21.5333 7.49991 19.7 7.86657 17.9 8.59991C16.1667 9.26657 14.6 10.2666 13.2 11.5999C11.8 12.8666 10.6667 14.4999 9.8 16.4999C8.93333 18.4999 8.5 20.7999 8.5 23.3999V29.0999ZM81.9172 48.9999V43.3999C80.4505 45.3332 78.4172 46.9332 75.8172 48.1999C73.2839 49.3999 70.3172 49.9999 66.9172 49.9999C61.7172 49.9999 57.5839 48.7332 54.5172 46.1999C51.5172 43.6666 50.0172 40.1999 50.0172 35.7999C50.0172 30.8666 51.6505 27.2999 54.9172 25.0999C58.2505 22.8999 62.6505 21.6999 68.1172 21.4999C70.5839 21.4332 72.8839 21.4332 75.0172 21.4999C77.1505 21.4999 79.2839 21.5332 81.4172 21.5999V17.4999C81.4172 14.0332 80.4172 11.4999 78.4172 9.89991C76.4172 8.29991 73.8839 7.49991 70.8172 7.49991C67.4172 7.49991 64.8172 8.33324 63.0172 9.99991C61.2839 11.6666 60.0172 13.6999 59.2172 16.0999L51.6172 14.4999C52.6172 10.2999 54.7505 6.89991 58.0172 4.29991C61.2839 1.69991 65.5505 0.399902 70.8172 0.399902C76.2172 0.399902 80.6505 1.76657 84.1172 4.49991C87.6505 7.16657 89.4172 11.3999 89.4172 17.1999V48.9999H81.9172ZM81.4172 27.8999C79.4172 27.8332 77.2839 27.7999 75.0172 27.7999C72.8172 27.7999 70.5839 27.8332 68.3172 27.8999C64.9172 28.0332 62.3505 28.7666 60.6172 30.0999C58.8839 31.4332 58.0172 33.2999 58.0172 35.6999C58.0172 37.9666 58.8172 39.7999 60.4172 41.1999C62.0839 42.5332 64.3172 43.1999 67.1172 43.1999C71.1172 43.1999 74.4839 42.2332 77.2172 40.2999C80.0172 38.2999 81.4172 35.6999 81.4172 32.4999V27.8999ZM130.091 48.9999V41.9999C128.558 44.5999 126.291 46.5999 123.291 47.9999C120.358 49.3332 117.358 49.9999 114.291 49.9999C108.758 49.9999 104.425 48.5666 101.291 45.6999C98.1581 42.7666 96.5914 38.4999 96.5914 32.8999V1.39991H104.591V31.6999C104.591 34.9666 105.458 37.6332 107.191 39.6999C108.991 41.7666 111.891 42.7999 115.891 42.7999C119.691 42.7999 122.925 41.6332 125.591 39.2999C128.258 36.9666 129.591 33.8332 129.591 29.8999V1.39991H137.591V48.9999H130.091ZM144.16 48.9999V40.8999L174.76 8.79991H145.06V1.39991H183.86V9.19991L152.96 41.5999H184.46V48.9999H144.16ZM219.191 48.9999V43.3999C217.724 45.3332 215.691 46.9332 213.091 48.1999C210.557 49.3999 207.591 49.9999 204.191 49.9999C198.991 49.9999 194.857 48.7332 191.791 46.1999C188.791 43.6666 187.291 40.1999 187.291 35.7999C187.291 30.8666 188.924 27.2999 192.191 25.0999C195.524 22.8999 199.924 21.6999 205.391 21.4999C207.857 21.4332 210.157 21.4332 212.291 21.4999C214.424 21.4999 216.557 21.5332 218.691 21.5999V17.4999C218.691 14.0332 217.691 11.4999 215.691 9.89991C213.691 8.29991 211.157 7.49991 208.091 7.49991C204.691 7.49991 202.091 8.33324 200.291 9.99991C198.557 11.6666 197.291 13.6999 196.491 16.0999L188.891 14.4999C189.891 10.2999 192.024 6.89991 195.291 4.29991C198.557 1.69991 202.824 0.399902 208.091 0.399902C213.491 0.399902 217.924 1.76657 221.391 4.49991C224.924 7.16657 226.691 11.3999 226.691 17.1999V48.9999H219.191ZM218.691 27.8999C216.691 27.8332 214.557 27.7999 212.291 27.7999C210.091 27.7999 207.857 27.8332 205.591 27.8999C202.191 28.0332 199.624 28.7666 197.891 30.0999C196.157 31.4332 195.291 33.2999 195.291 35.6999C195.291 37.9666 196.091 39.7999 197.691 41.1999C199.357 42.5332 201.591 43.1999 204.391 43.1999C208.391 43.1999 211.757 42.2332 214.491 40.2999C217.291 38.2999 218.691 35.6999 218.691 32.4999V27.8999Z" fill="white"/>
</g>
<path d="M237.437 49C236.595 49 235.837 48.8164 235.163 48.4493C234.489 48.0717 233.958 47.5419 233.569 46.8601C233.189 46.1783 233 45.3916 233 44.5C233 43.6084 233.195 42.8217 233.584 42.1399C233.984 41.458 234.526 40.9335 235.211 40.5664C235.895 40.1888 236.658 40 237.5 40C238.342 40 239.105 40.1888 239.789 40.5664C240.474 40.9335 241.01 41.458 241.4 42.1399C241.8 42.8217 242 43.6084 242 44.5C242 45.3916 241.795 46.1783 241.384 46.8601C240.984 47.5419 240.437 48.0717 239.742 48.4493C239.058 48.8164 238.29 49 237.437 49Z" fill="#FFCE00"/>
<defs>
<clipPath id="clip0_978_2237">
<rect width="227" height="69" fill="white"/>
</clipPath>
</defs>
</svg>
