<svg width="250" height="250" viewBox="0 0 250 250" fill="none" xmlns="http://www.w3.org/2000/svg">
<rect width="250" height="250" rx="125" fill="#19191B"/>
<path d="M123.947 200C109.912 200 97.2809 196.94 86.0526 190.822C74.8243 184.528 65.9651 175.699 59.4737 164.336C53.1579 152.972 50 139.86 50 125C50 110.14 53.2454 97.0278 59.7368 85.6643C66.4033 74.3009 75.4388 65.5592 86.8421 59.4406C98.2454 53.1469 110.965 50 125 50C139.035 50 151.755 53.1469 163.158 59.4406C174.561 65.5592 183.509 74.3009 190 85.6643C196.666 97.0278 200 110.14 200 125C200 139.86 196.579 152.972 189.737 164.336C183.07 175.699 173.947 184.528 162.368 190.822C150.965 196.94 138.158 200 123.947 200Z" fill="#19191B"/>
</svg>
