<svg width="128" height="33" viewBox="0 0 128 33" fill="none" xmlns="http://www.w3.org/2000/svg">
<path opacity="0.2" d="M16.7333 29.5C23.913 29.5 29.7333 23.6797 29.7333 16.5C29.7333 9.3203 23.913 3.5 16.7333 3.5C9.55364 3.5 3.73334 9.3203 3.73334 16.5C3.73334 23.6797 9.55364 29.5 16.7333 29.5Z" fill="#FFD700"/>
<path opacity="0.4" d="M16.7333 25.5C21.7039 25.5 25.7333 21.4706 25.7333 16.5C25.7333 11.5294 21.7039 7.5 16.7333 7.5C11.7628 7.5 7.73334 11.5294 7.73334 16.5C7.73334 21.4706 11.7628 25.5 16.7333 25.5Z" fill="#FFD700"/>
<path d="M16.7333 21.5C19.4948 21.5 21.7333 19.2614 21.7333 16.5C21.7333 13.7386 19.4948 11.5 16.7333 11.5C13.9719 11.5 11.7333 13.7386 11.7333 16.5C11.7333 19.2614 13.9719 21.5 16.7333 21.5Z" fill="#FFD700"/>
<path d="M47.1424 13.2273L45.9379 13.5682C45.8621 13.3674 45.7504 13.1723 45.6027 12.983C45.4587 12.7898 45.2617 12.6307 45.0117 12.5057C44.7617 12.3807 44.4417 12.3182 44.0515 12.3182C43.5174 12.3182 43.0724 12.4413 42.7163 12.6875C42.364 12.9299 42.1879 13.2386 42.1879 13.6136C42.1879 13.947 42.3091 14.2102 42.5515 14.4034C42.7939 14.5966 43.1727 14.7576 43.6879 14.8864L44.9833 15.2045C45.7636 15.3939 46.3451 15.6837 46.7277 16.0739C47.1102 16.4602 47.3015 16.9583 47.3015 17.5682C47.3015 18.0682 47.1576 18.5152 46.8697 18.9091C46.5856 19.303 46.1879 19.6136 45.6765 19.8409C45.1652 20.0682 44.5705 20.1818 43.8924 20.1818C43.0023 20.1818 42.2655 19.9886 41.6822 19.6023C41.0989 19.2159 40.7295 18.6515 40.5742 17.9091L41.847 17.5909C41.9682 18.0606 42.1974 18.4129 42.5345 18.6477C42.8754 18.8826 43.3205 19 43.8697 19C44.4947 19 44.9909 18.8674 45.3583 18.6023C45.7295 18.3333 45.9152 18.0114 45.9152 17.6364C45.9152 17.3333 45.8091 17.0795 45.597 16.875C45.3849 16.6667 45.0591 16.5114 44.6197 16.4091L43.1652 16.0682C42.3659 15.8788 41.7788 15.5852 41.4038 15.1875C41.0326 14.786 40.847 14.2841 40.847 13.6818C40.847 13.1894 40.9852 12.7538 41.2617 12.375C41.542 11.9962 41.9227 11.6989 42.4038 11.483C42.8886 11.267 43.4379 11.1591 44.0515 11.1591C44.9152 11.1591 45.5932 11.3485 46.0856 11.7273C46.5818 12.1061 46.9341 12.6061 47.1424 13.2273ZM49.32 23.2727V11.2727H50.6154V12.6591H50.7745C50.873 12.5076 51.0094 12.3144 51.1836 12.0795C51.3617 11.8409 51.6154 11.6288 51.945 11.4432C52.2783 11.2538 52.7291 11.1591 53.2973 11.1591C54.0321 11.1591 54.6798 11.3428 55.2404 11.7102C55.801 12.0777 56.2385 12.5985 56.5529 13.2727C56.8673 13.947 57.0245 14.7424 57.0245 15.6591C57.0245 16.5833 56.8673 17.3845 56.5529 18.0625C56.2385 18.7367 55.8029 19.2595 55.2461 19.6307C54.6893 19.9981 54.0473 20.1818 53.32 20.1818C52.7594 20.1818 52.3105 20.089 51.9734 19.9034C51.6363 19.714 51.3768 19.5 51.195 19.2614C51.0132 19.0189 50.873 18.8182 50.7745 18.6591H50.6609V23.2727H49.32ZM50.6382 15.6364C50.6382 16.2955 50.7348 16.8769 50.9279 17.3807C51.1211 17.8807 51.4033 18.2727 51.7745 18.5568C52.1457 18.8371 52.6003 18.9773 53.1382 18.9773C53.6988 18.9773 54.1666 18.8295 54.5416 18.5341C54.9204 18.2348 55.2045 17.8333 55.3938 17.3295C55.587 16.822 55.6836 16.2576 55.6836 15.6364C55.6836 15.0227 55.5889 14.4697 55.3995 13.9773C55.2139 13.4811 54.9317 13.089 54.5529 12.8011C54.1779 12.5095 53.7063 12.3636 53.1382 12.3636C52.5927 12.3636 52.1344 12.5019 51.7632 12.7784C51.392 13.0511 51.1117 13.4337 50.9223 13.9261C50.7329 14.4148 50.6382 14.9848 50.6382 15.6364ZM62.6154 20.1818C61.8276 20.1818 61.1363 19.9943 60.5416 19.6193C59.9507 19.2443 59.4885 18.7197 59.1552 18.0455C58.8257 17.3712 58.6609 16.5833 58.6609 15.6818C58.6609 14.7727 58.8257 13.9792 59.1552 13.3011C59.4885 12.6231 59.9507 12.0966 60.5416 11.7216C61.1363 11.3466 61.8276 11.1591 62.6154 11.1591C63.4033 11.1591 64.0927 11.3466 64.6836 11.7216C65.2783 12.0966 65.7404 12.6231 66.07 13.3011C66.4033 13.9792 66.57 14.7727 66.57 15.6818C66.57 16.5833 66.4033 17.3712 66.07 18.0455C65.7404 18.7197 65.2783 19.2443 64.6836 19.6193C64.0927 19.9943 63.4033 20.1818 62.6154 20.1818ZM62.6154 18.9773C63.2139 18.9773 63.7063 18.8239 64.0927 18.517C64.4791 18.2102 64.7651 17.8068 64.9507 17.3068C65.1363 16.8068 65.2291 16.2652 65.2291 15.6818C65.2291 15.0985 65.1363 14.5549 64.9507 14.0511C64.7651 13.5473 64.4791 13.1402 64.0927 12.8295C63.7063 12.5189 63.2139 12.3636 62.6154 12.3636C62.017 12.3636 61.5245 12.5189 61.1382 12.8295C60.7518 13.1402 60.4658 13.5473 60.2802 14.0511C60.0946 14.5549 60.0018 15.0985 60.0018 15.6818C60.0018 16.2652 60.0946 16.8068 60.2802 17.3068C60.4658 17.8068 60.7518 18.2102 61.1382 18.517C61.5245 18.8239 62.017 18.9773 62.6154 18.9773ZM69.8669 16.8182L69.8441 15.1591H70.1169L73.935 11.2727H75.5941L71.526 15.3864H71.4123L69.8669 16.8182ZM68.6169 20V8.36364H69.9578V20H68.6169ZM74.1623 20L70.7532 15.6818L71.7078 14.75L75.8669 20H74.1623ZM83.5018 13.2273L82.2973 13.5682C82.2215 13.3674 82.1098 13.1723 81.962 12.983C81.8181 12.7898 81.6211 12.6307 81.3711 12.5057C81.1211 12.3807 80.801 12.3182 80.4109 12.3182C79.8768 12.3182 79.4317 12.4413 79.0757 12.6875C78.7234 12.9299 78.5473 13.2386 78.5473 13.6136C78.5473 13.947 78.6685 14.2102 78.9109 14.4034C79.1533 14.5966 79.5321 14.7576 80.0473 14.8864L81.3427 15.2045C82.123 15.3939 82.7045 15.6837 83.087 16.0739C83.4696 16.4602 83.6609 16.9583 83.6609 17.5682C83.6609 18.0682 83.517 18.5152 83.2291 18.9091C82.945 19.303 82.5473 19.6136 82.0359 19.8409C81.5245 20.0682 80.9298 20.1818 80.2518 20.1818C79.3617 20.1818 78.6249 19.9886 78.0416 19.6023C77.4582 19.2159 77.0889 18.6515 76.9336 17.9091L78.2063 17.5909C78.3276 18.0606 78.5567 18.4129 78.8938 18.6477C79.2348 18.8826 79.6798 19 80.2291 19C80.8541 19 81.3503 18.8674 81.7177 18.6023C82.0889 18.3333 82.2745 18.0114 82.2745 17.6364C82.2745 17.3333 82.1685 17.0795 81.9563 16.875C81.7442 16.6667 81.4185 16.5114 80.9791 16.4091L79.5245 16.0682C78.7253 15.8788 78.1382 15.5852 77.7632 15.1875C77.392 14.786 77.2063 14.2841 77.2063 13.6818C77.2063 13.1894 77.3446 12.7538 77.6211 12.375C77.9014 11.9962 78.2821 11.6989 78.7632 11.483C79.248 11.267 79.7973 11.1591 80.4109 11.1591C81.2745 11.1591 81.9526 11.3485 82.445 11.7273C82.9412 12.1061 83.2935 12.6061 83.5018 13.2273ZM85.6794 23.2727V11.2727H86.9748V12.6591H87.1339C87.2324 12.5076 87.3688 12.3144 87.543 12.0795C87.721 11.8409 87.9748 11.6288 88.3044 11.4432C88.6377 11.2538 89.0885 11.1591 89.6566 11.1591C90.3915 11.1591 91.0392 11.3428 91.5998 11.7102C92.1604 12.0777 92.5979 12.5985 92.9123 13.2727C93.2267 13.947 93.3839 14.7424 93.3839 15.6591C93.3839 16.5833 93.2267 17.3845 92.9123 18.0625C92.5979 18.7367 92.1623 19.2595 91.6055 19.6307C91.0487 19.9981 90.4066 20.1818 89.6794 20.1818C89.1188 20.1818 88.6699 20.089 88.3328 19.9034C87.9956 19.714 87.7362 19.5 87.5544 19.2614C87.3725 19.0189 87.2324 18.8182 87.1339 18.6591H87.0203V23.2727H85.6794ZM86.9975 15.6364C86.9975 16.2955 87.0941 16.8769 87.2873 17.3807C87.4805 17.8807 87.7627 18.2727 88.1339 18.5568C88.5051 18.8371 88.9597 18.9773 89.4975 18.9773C90.0581 18.9773 90.526 18.8295 90.901 18.5341C91.2797 18.2348 91.5638 17.8333 91.7532 17.3295C91.9464 16.822 92.043 16.2576 92.043 15.6364C92.043 15.0227 91.9483 14.4697 91.7589 13.9773C91.5733 13.4811 91.2911 13.089 90.9123 12.8011C90.5373 12.5095 90.0657 12.3636 89.4975 12.3636C88.9521 12.3636 88.4938 12.5019 88.1225 12.7784C87.7513 13.0511 87.471 13.4337 87.2816 13.9261C87.0922 14.4148 86.9975 14.9848 86.9975 15.6364ZM97.9975 20.2045C97.4445 20.2045 96.9426 20.1004 96.4919 19.892C96.0411 19.6799 95.6831 19.375 95.418 18.9773C95.1528 18.5758 95.0203 18.0909 95.0203 17.5227C95.0203 17.0227 95.1188 16.6174 95.3157 16.3068C95.5127 15.9924 95.776 15.7462 96.1055 15.5682C96.435 15.3902 96.7987 15.2576 97.1964 15.1705C97.5979 15.0795 98.0013 15.0076 98.4066 14.9545C98.9369 14.8864 99.3669 14.8352 99.6964 14.8011C100.03 14.7633 100.272 14.7008 100.424 14.6136C100.579 14.5265 100.657 14.375 100.657 14.1591V14.1136C100.657 13.553 100.503 13.1174 100.196 12.8068C99.8934 12.4962 99.4331 12.3409 98.8157 12.3409C98.1756 12.3409 97.6737 12.4811 97.31 12.7614C96.9464 13.0417 96.6907 13.3409 96.543 13.6591L95.2703 13.2045C95.4975 12.6742 95.8006 12.2614 96.1794 11.9659C96.5619 11.6667 96.9786 11.4583 97.4294 11.3409C97.8839 11.2197 98.3309 11.1591 98.7703 11.1591C99.0506 11.1591 99.3725 11.1932 99.7362 11.2614C100.104 11.3258 100.458 11.4602 100.799 11.6648C101.143 11.8693 101.429 12.178 101.657 12.5909C101.884 13.0038 101.998 13.5568 101.998 14.25V20H100.657V18.8182H100.588C100.498 19.0076 100.346 19.2102 100.134 19.4261C99.9218 19.642 99.6396 19.8258 99.2873 19.9773C98.935 20.1288 98.5051 20.2045 97.9975 20.2045ZM98.2021 19C98.7324 19 99.1794 18.8958 99.543 18.6875C99.9104 18.4792 100.187 18.2102 100.373 17.8807C100.562 17.5511 100.657 17.2045 100.657 16.8409V15.6136C100.6 15.6818 100.475 15.7443 100.282 15.8011C100.092 15.8542 99.8725 15.9015 99.6225 15.9432C99.3763 15.9811 99.1358 16.0152 98.901 16.0455C98.6699 16.072 98.4824 16.0947 98.3385 16.1136C97.99 16.1591 97.6642 16.233 97.3612 16.3352C97.0619 16.4337 96.8195 16.5833 96.6339 16.7841C96.4521 16.9811 96.3612 17.25 96.3612 17.5909C96.3612 18.0568 96.5335 18.4091 96.8782 18.6477C97.2267 18.8826 97.668 19 98.2021 19ZM107.99 20.1818C107.172 20.1818 106.468 19.9886 105.877 19.6023C105.286 19.2159 104.831 18.6837 104.513 18.0057C104.195 17.3277 104.036 16.553 104.036 15.6818C104.036 14.7955 104.199 14.0133 104.525 13.3352C104.854 12.6534 105.312 12.1212 105.9 11.7386C106.49 11.3523 107.18 11.1591 107.968 11.1591C108.581 11.1591 109.134 11.2727 109.627 11.5C110.119 11.7273 110.523 12.0455 110.837 12.4545C111.151 12.8636 111.347 13.3409 111.422 13.8864H110.081C109.979 13.4886 109.752 13.1364 109.4 12.8295C109.051 12.5189 108.581 12.3636 107.99 12.3636C107.468 12.3636 107.009 12.5 106.615 12.7727C106.225 13.0417 105.92 13.4223 105.701 13.9148C105.485 14.4034 105.377 14.9773 105.377 15.6364C105.377 16.3106 105.483 16.8977 105.695 17.3977C105.911 17.8977 106.214 18.286 106.604 18.5625C106.998 18.839 107.46 18.9773 107.99 18.9773C108.339 18.9773 108.655 18.9167 108.939 18.7955C109.223 18.6742 109.464 18.5 109.661 18.2727C109.858 18.0455 109.998 17.7727 110.081 17.4545H111.422C111.347 17.9697 111.159 18.4337 110.86 18.8466C110.564 19.2557 110.172 19.5814 109.684 19.8239C109.199 20.0625 108.634 20.1818 107.99 20.1818ZM117.042 20.1818C116.201 20.1818 115.475 19.9962 114.865 19.625C114.259 19.25 113.792 18.7273 113.462 18.0568C113.136 17.3826 112.973 16.5985 112.973 15.7045C112.973 14.8106 113.136 14.0227 113.462 13.3409C113.792 12.6553 114.25 12.1212 114.837 11.7386C115.428 11.3523 116.117 11.1591 116.905 11.1591C117.36 11.1591 117.809 11.2348 118.252 11.3864C118.695 11.5379 119.098 11.7841 119.462 12.125C119.826 12.4621 120.115 12.9091 120.331 13.4659C120.547 14.0227 120.655 14.7083 120.655 15.5227V16.0909H113.928V14.9318H119.292C119.292 14.4394 119.193 14 118.996 13.6136C118.803 13.2273 118.526 12.9223 118.167 12.6989C117.811 12.4754 117.39 12.3636 116.905 12.3636C116.371 12.3636 115.909 12.4962 115.519 12.7614C115.132 13.0227 114.835 13.3636 114.627 13.7841C114.418 14.2045 114.314 14.6553 114.314 15.1364V15.9091C114.314 16.5682 114.428 17.1269 114.655 17.5852C114.886 18.0398 115.206 18.3864 115.615 18.625C116.025 18.8598 116.5 18.9773 117.042 18.9773C117.394 18.9773 117.712 18.928 117.996 18.8295C118.284 18.7273 118.532 18.5758 118.74 18.375C118.949 18.1705 119.11 17.9167 119.223 17.6136L120.519 17.9773C120.382 18.4167 120.153 18.803 119.831 19.1364C119.509 19.4659 119.112 19.7235 118.638 19.9091C118.165 20.0909 117.632 20.1818 117.042 20.1818Z" fill="white"/>
</svg>
